<svg width="56" height="56" viewBox="0 0 56 56" fill="none" xmlns="http://www.w3.org/2000/svg">
<path d="M27.7671 4.62793C22.8895 4.62769 18.2089 6.55256 14.7426 9.98418C11.2763 13.4158 9.30447 18.0768 9.25569 22.9542C9.25569 35.6345 25.5688 49.7494 26.263 50.3511C26.6822 50.7095 27.2155 50.9065 27.7671 50.9065C28.3186 50.9065 28.852 50.7095 29.2711 50.3511C30.081 49.7494 46.2785 35.6345 46.2785 22.9542C46.2297 18.0768 44.2579 13.4158 40.7916 9.98418C37.3253 6.55256 32.6447 4.62769 27.7671 4.62793ZM27.7671 45.4687C23.9028 41.7895 13.8835 31.5851 13.8835 22.9542C13.8835 19.2721 15.3463 15.7407 17.9499 13.1371C20.5536 10.5334 24.0849 9.07066 27.7671 9.07066C31.4492 9.07066 34.9806 10.5334 37.5842 13.1371C40.1879 15.7407 41.6506 19.2721 41.6506 22.9542C41.6506 31.5157 31.6313 41.7895 27.7671 45.4687Z" fill="#231F20"/>
<path d="M27.7671 13.8835C26.1653 13.8835 24.5995 14.3585 23.2677 15.2484C21.9358 16.1383 20.8978 17.4032 20.2848 18.883C19.6719 20.3629 19.5115 21.9913 19.824 23.5623C20.1365 25.1333 20.9078 26.5763 22.0404 27.7089C23.173 28.8416 24.6161 29.6129 26.1871 29.9254C27.7581 30.2379 29.3865 30.0775 30.8663 29.4645C32.3462 28.8516 33.611 27.8135 34.5009 26.4817C35.3908 25.1499 35.8658 23.5841 35.8658 21.9823C35.8658 19.8344 35.0126 17.7744 33.4938 16.2556C31.9749 14.7368 29.915 13.8835 27.7671 13.8835ZM27.7671 25.4532C27.0806 25.4532 26.4096 25.2496 25.8388 24.8682C25.268 24.4868 24.8231 23.9447 24.5604 23.3105C24.2977 22.6763 24.229 21.9784 24.3629 21.3051C24.4968 20.6319 24.8274 20.0134 25.3128 19.528C25.7982 19.0426 26.4167 18.712 27.0899 18.5781C27.7632 18.4442 28.4611 18.5129 29.0953 18.7756C29.7296 19.0383 30.2716 19.4832 30.653 20.054C31.0344 20.6247 31.238 21.2958 31.238 21.9823C31.238 22.9028 30.8723 23.7856 30.2214 24.4366C29.5705 25.0875 28.6876 25.4532 27.7671 25.4532Z" fill="#231F20"/>
</svg>
