<svg width="12" height="12" viewBox="0 0 12 12" fill="none" xmlns="http://www.w3.org/2000/svg">
<g clip-path="url(#clip0_203_3791)">
<path d="M9.5 1.5H7.41C7.2 0.92 6.65 0.5 6 0.5C5.35 0.5 4.8 0.92 4.59 1.5H2.5C1.95 1.5 1.5 1.95 1.5 2.5V9.5C1.5 10.05 1.95 10.5 2.5 10.5H9.5C10.05 10.5 10.5 10.05 10.5 9.5V2.5C10.5 1.95 10.05 1.5 9.5 1.5ZM6 1.5C6.275 1.5 6.5 1.725 6.5 2C6.5 2.275 6.275 2.5 6 2.5C5.725 2.5 5.5 2.275 5.5 2C5.5 1.725 5.725 1.5 6 1.5ZM6.5 8.5H4C3.725 8.5 3.5 8.275 3.5 8C3.5 7.725 3.725 7.5 4 7.5H6.5C6.775 7.5 7 7.725 7 8C7 8.275 6.775 8.5 6.5 8.5ZM8 6.5H4C3.725 6.5 3.5 6.275 3.5 6C3.5 5.725 3.725 5.5 4 5.5H8C8.275 5.5 8.5 5.725 8.5 6C8.5 6.275 8.275 6.5 8 6.5ZM8 4.5H4C3.725 4.5 3.5 4.275 3.5 4C3.5 3.725 3.725 3.5 4 3.5H8C8.275 3.5 8.5 3.725 8.5 4C8.5 4.275 8.275 4.5 8 4.5Z" fill="white"/>
</g>
<defs>
<clipPath id="clip0_203_3791">
<rect width="12" height="12" fill="white"/>
</clipPath>
</defs>
</svg>
