<svg width="12" height="14" viewBox="0 0 12 14" fill="none" xmlns="http://www.w3.org/2000/svg">
<path d="M10.6667 1.33333H7.88C7.6 0.56 6.86667 0 6 0C5.13333 0 4.4 0.56 4.12 1.33333H1.33333C0.6 1.33333 0 1.93333 0 2.66667V12C0 12.7333 0.6 13.3333 1.33333 13.3333H10.6667C11.4 13.3333 12 12.7333 12 12V2.66667C12 1.93333 11.4 1.33333 10.6667 1.33333ZM6 1.33333C6.36667 1.33333 6.66667 1.63333 6.66667 2C6.66667 2.36667 6.36667 2.66667 6 2.66667C5.63333 2.66667 5.33333 2.36667 5.33333 2C5.33333 1.63333 5.63333 1.33333 6 1.33333ZM6.66667 10.6667H3.33333C2.96667 10.6667 2.66667 10.3667 2.66667 10C2.66667 9.63333 2.96667 9.33333 3.33333 9.33333H6.66667C7.03333 9.33333 7.33333 9.63333 7.33333 10C7.33333 10.3667 7.03333 10.6667 6.66667 10.6667ZM8.66667 8H3.33333C2.96667 8 2.66667 7.7 2.66667 7.33333C2.66667 6.96667 2.96667 6.66667 3.33333 6.66667H8.66667C9.03333 6.66667 9.33333 6.96667 9.33333 7.33333C9.33333 7.7 9.03333 8 8.66667 8ZM8.66667 5.33333H3.33333C2.96667 5.33333 2.66667 5.03333 2.66667 4.66667C2.66667 4.3 2.96667 4 3.33333 4H8.66667C9.03333 4 9.33333 4.3 9.33333 4.66667C9.33333 5.03333 9.03333 5.33333 8.66667 5.33333Z" fill="black"/>
</svg>
