<svg width="18" height="18" viewBox="0 0 18 18" fill="none" xmlns="http://www.w3.org/2000/svg">
<path d="M13.5 2.25H4.5C3.90326 2.25 3.33097 2.48705 2.90901 2.90901C2.48705 3.33097 2.25 3.90326 2.25 4.5V13.5C2.25 14.0967 2.48705 14.669 2.90901 15.091C3.33097 15.5129 3.90326 15.75 4.5 15.75H13.5C14.0967 15.75 14.669 15.5129 15.091 15.091C15.5129 14.669 15.75 14.0967 15.75 13.5V4.5C15.75 3.90326 15.5129 3.33097 15.091 2.90901C14.669 2.48705 14.0967 2.25 13.5 2.25ZM9 4.5C9.14834 4.5 9.29334 4.54399 9.41668 4.6264C9.54001 4.70881 9.63614 4.82594 9.69291 4.96299C9.74968 5.10003 9.76453 5.25083 9.73559 5.39632C9.70665 5.5418 9.63522 5.67544 9.53033 5.78033C9.42544 5.88522 9.2918 5.95665 9.14632 5.98559C9.00083 6.01453 8.85003 5.99968 8.71299 5.94291C8.57594 5.88614 8.45881 5.79001 8.3764 5.66668C8.29399 5.54334 8.25 5.39834 8.25 5.25C8.25 5.05109 8.32902 4.86032 8.46967 4.71967C8.61032 4.57902 8.80109 4.5 9 4.5ZM6 4.5C6.14834 4.5 6.29334 4.54399 6.41668 4.6264C6.54001 4.70881 6.63614 4.82594 6.69291 4.96299C6.74968 5.10003 6.76453 5.25083 6.73559 5.39632C6.70665 5.5418 6.63522 5.67544 6.53033 5.78033C6.42544 5.88522 6.2918 5.95665 6.14632 5.98559C6.00083 6.01453 5.85003 5.99968 5.71299 5.94291C5.57594 5.88614 5.45881 5.79001 5.3764 5.66668C5.29399 5.54334 5.25 5.39834 5.25 5.25C5.25 5.05109 5.32902 4.86032 5.46967 4.71967C5.61032 4.57902 5.80109 4.5 6 4.5ZM14.25 13.5C14.25 13.6989 14.171 13.8897 14.0303 14.0303C13.8897 14.171 13.6989 14.25 13.5 14.25H4.5C4.30109 14.25 4.11032 14.171 3.96967 14.0303C3.82902 13.8897 3.75 13.6989 3.75 13.5V8.25H14.25V13.5Z" fill="#231F20"/>
</svg>
