<svg width="26" height="26" viewBox="0 0 26 26" fill="none" xmlns="http://www.w3.org/2000/svg">
<path d="M22.9436 11.918L18.0575 7.98781V5.31106C18.0835 4.77458 17.8957 4.24968 17.5353 3.85144C17.1749 3.45321 16.6713 3.21414 16.1349 3.18665H4.02574C3.49311 3.21953 2.99489 3.46094 2.63901 3.85858C2.28312 4.25622 2.09823 4.77806 2.12439 5.31106V15.9331C2.11453 16.3549 2.2305 16.7701 2.45751 17.1258C2.68452 17.4814 3.01229 17.7614 3.39904 17.9301C3.20341 18.4086 3.12717 18.9276 3.17689 19.4422C3.22661 19.9568 3.4008 20.4516 3.68442 20.8839C3.96804 21.3162 4.35259 21.6729 4.80487 21.9234C5.25715 22.1739 5.76358 22.3106 6.28047 22.3217C6.79736 22.3327 7.30919 22.2179 7.77178 21.987C8.23438 21.7561 8.63385 21.4162 8.93573 20.9964C9.23761 20.5767 9.43283 20.0898 9.50455 19.5778C9.57627 19.0658 9.52233 18.544 9.34739 18.0575H16.103C15.9283 18.5388 15.8722 19.0552 15.9394 19.5628C16.0065 20.0704 16.1951 20.5544 16.4889 20.9737C16.7828 21.393 17.1734 21.7353 17.6277 21.9716C18.0819 22.2079 18.5864 22.3313 19.0984 22.3313C19.6105 22.3313 20.115 22.2079 20.5692 21.9716C21.0235 21.7353 21.4141 21.393 21.7079 20.9737C22.0018 20.5544 22.1903 20.0704 22.2575 19.5628C22.3247 19.0552 22.2686 18.5388 22.0939 18.0575H22.3063C22.588 18.0575 22.8582 17.9456 23.0574 17.7464C23.2566 17.5472 23.3685 17.277 23.3685 16.9953V12.7465C23.3653 12.5852 23.3253 12.4268 23.2517 12.2832C23.1781 12.1396 23.0727 12.0147 22.9436 11.918ZM21.2441 13.2564V15.9331H18.0575V10.7071L21.2441 13.2564ZM7.43542 19.1197C7.43542 19.3298 7.37312 19.5352 7.2564 19.7099C7.13969 19.8845 6.97379 20.0207 6.7797 20.1011C6.58561 20.1815 6.37203 20.2025 6.16599 20.1615C5.95994 20.1205 5.77067 20.0194 5.62212 19.8708C5.47357 19.7223 5.3724 19.533 5.33142 19.327C5.29043 19.1209 5.31147 18.9073 5.39186 18.7132C5.47226 18.5191 5.6084 18.3533 5.78308 18.2365C5.95776 18.1198 6.16313 18.0575 6.37321 18.0575C6.65493 18.0575 6.9251 18.1694 7.1243 18.3686C7.32351 18.5678 7.43542 18.838 7.43542 19.1197ZM12.7464 15.9331H4.2488V5.31106H15.9331V15.9331H12.7464ZM20.1819 19.1197C20.1819 19.3298 20.1196 19.5352 20.0029 19.7099C19.8862 19.8845 19.7203 20.0207 19.5262 20.1011C19.3321 20.1815 19.1185 20.2025 18.9125 20.1615C18.7064 20.1205 18.5171 20.0194 18.3686 19.8708C18.22 19.7223 18.1189 19.533 18.0779 19.327C18.0369 19.1209 18.0579 18.9073 18.1383 18.7132C18.2187 18.5191 18.3549 18.3533 18.5296 18.2365C18.7042 18.1198 18.9096 18.0575 19.1197 18.0575C19.4014 18.0575 19.6716 18.1694 19.8708 18.3686C20.07 18.5678 20.1819 18.838 20.1819 19.1197Z" fill="#231F20"/>
</svg>
