<svg width="14" height="14" viewBox="0 0 14 14" fill="none" xmlns="http://www.w3.org/2000/svg">
<path d="M12.6 6.545L9.91665 4.38667V2.91667C9.93094 2.62205 9.82782 2.33379 9.62989 2.11509C9.43197 1.89639 9.1554 1.7651 8.86082 1.75H2.21082C1.91832 1.76806 1.64471 1.90064 1.44927 2.11901C1.25382 2.33738 1.15229 2.62396 1.16665 2.91667V8.75C1.16124 8.98164 1.22493 9.20966 1.34959 9.40497C1.47426 9.60028 1.65426 9.75405 1.86665 9.84667C1.75922 10.1095 1.71736 10.3945 1.74466 10.6771C1.77196 10.9597 1.86762 11.2314 2.02338 11.4688C2.17914 11.7062 2.39032 11.9022 2.6387 12.0397C2.88708 12.1773 3.1652 12.2523 3.44906 12.2584C3.73292 12.2645 4.014 12.2014 4.26804 12.0746C4.52209 11.9478 4.74147 11.7611 4.90725 11.5306C5.07303 11.3001 5.18024 11.0328 5.21963 10.7516C5.25902 10.4704 5.22939 10.1838 5.13332 9.91667H8.84332C8.74738 10.181 8.71655 10.4645 8.75345 10.7433C8.79034 11.0221 8.89386 11.2879 9.05526 11.5181C9.21665 11.7484 9.43115 11.9364 9.68061 12.0662C9.93006 12.196 10.2071 12.2637 10.4883 12.2637C10.7695 12.2637 11.0466 12.196 11.296 12.0662C11.5455 11.9364 11.76 11.7484 11.9214 11.5181C12.0828 11.2879 12.1863 11.0221 12.2232 10.7433C12.2601 10.4645 12.2293 10.181 12.1333 9.91667H12.25C12.4047 9.91667 12.5531 9.85521 12.6625 9.74581C12.7719 9.63642 12.8333 9.48804 12.8333 9.33333V7C12.8315 6.91142 12.8096 6.82441 12.7692 6.74557C12.7287 6.66673 12.6709 6.59814 12.6 6.545ZM11.6667 7.28V8.75H9.91665V5.88L11.6667 7.28ZM4.08332 10.5C4.08332 10.6154 4.04911 10.7282 3.98501 10.8241C3.92091 10.92 3.82981 10.9948 3.72322 11.0389C3.61663 11.0831 3.49934 11.0946 3.38619 11.0721C3.27303 11.0496 3.16909 10.9941 3.08751 10.9125C3.00593 10.8309 2.95037 10.727 2.92786 10.6138C2.90535 10.5006 2.91691 10.3834 2.96106 10.2768C3.00521 10.1702 3.07998 10.0791 3.17591 10.015C3.27183 9.95088 3.38462 9.91667 3.49999 9.91667C3.6547 9.91667 3.80307 9.97812 3.91247 10.0875C4.02186 10.1969 4.08332 10.3453 4.08332 10.5ZM6.99999 8.75H2.33332V2.91667H8.74999V8.75H6.99999ZM11.0833 10.5C11.0833 10.6154 11.0491 10.7282 10.985 10.8241C10.9209 10.92 10.8298 10.9948 10.7232 11.0389C10.6166 11.0831 10.4993 11.0946 10.3862 11.0721C10.273 11.0496 10.1691 10.9941 10.0875 10.9125C10.0059 10.8309 9.95037 10.727 9.92786 10.6138C9.90535 10.5006 9.91691 10.3834 9.96106 10.2768C10.0052 10.1702 10.08 10.0791 10.1759 10.015C10.2718 9.95088 10.3846 9.91667 10.5 9.91667C10.6547 9.91667 10.8031 9.97812 10.9125 10.0875C11.0219 10.1969 11.0833 10.3453 11.0833 10.5Z" fill="white"/>
</svg>
