<svg width="14" height="14" viewBox="0 0 14 14" fill="none" xmlns="http://www.w3.org/2000/svg">
<path d="M11.0836 11.6655H2.91695C2.76224 11.6655 2.61387 11.727 2.50447 11.8364C2.39508 11.9458 2.33362 12.0942 2.33362 12.2489C2.33362 12.4036 2.39508 12.5519 2.50447 12.6613C2.61387 12.7707 2.76224 12.8322 2.91695 12.8322H11.0836C11.2383 12.8322 11.3867 12.7707 11.4961 12.6613C11.6055 12.5519 11.667 12.4036 11.667 12.2489C11.667 12.0942 11.6055 11.9458 11.4961 11.8364C11.3867 11.727 11.2383 11.6655 11.0836 11.6655Z" fill="white"/>
<path d="M2.91684 10.4993H2.96934L5.40184 10.2777C5.6683 10.2511 5.91753 10.1337 6.10767 9.94518L11.3577 4.69518C11.5614 4.47991 11.6716 4.19264 11.6639 3.89633C11.6563 3.60001 11.5314 3.31881 11.3168 3.11435L9.71851 1.51601C9.5099 1.32007 9.23655 1.20764 8.95045 1.20011C8.66435 1.19258 8.38546 1.29048 8.16684 1.47518L2.91684 6.72518C2.72829 6.91533 2.61088 7.16455 2.58434 7.43101L2.33351 9.86351C2.32565 9.94895 2.33673 10.0351 2.36598 10.1157C2.39522 10.1964 2.44189 10.2696 2.50267 10.3302C2.55718 10.3842 2.62182 10.427 2.69289 10.456C2.76397 10.4851 2.84007 10.4998 2.91684 10.4993ZM8.90767 2.33268L10.5002 3.92518L9.33351 5.06268L7.77017 3.49935L8.90767 2.33268ZM3.71601 7.53018L7.00017 4.26935L8.57517 5.84435L5.30851 9.11101L3.55851 9.27435L3.71601 7.53018Z" fill="white"/>
</svg>
