<svg width="15" height="14" viewBox="0 0 15 14" fill="none" xmlns="http://www.w3.org/2000/svg">
<path d="M11.7852 10.5H3.693C3.37377 10.5 3.11499 10.7612 3.11499 11.0833C3.11499 11.4055 3.37377 11.6667 3.693 11.6667H11.7852C12.1044 11.6667 12.3632 11.4055 12.3632 11.0833C12.3632 10.7612 12.1044 10.5 11.7852 10.5Z" fill="white"/>
<path d="M3.11499 9.91626V11.0829C3.11499 11.4051 3.37377 11.6663 3.693 11.6663C4.01223 11.6663 4.27101 11.4051 4.27101 11.0829V9.91626C4.27101 9.59409 4.01223 9.33293 3.693 9.33293C3.37377 9.33293 3.11499 9.59409 3.11499 9.91626Z" fill="white"/>
<path d="M11.2072 9.91626V11.0829C11.2072 11.4051 11.466 11.6663 11.7852 11.6663C12.1045 11.6663 12.3632 11.4051 12.3632 11.0829V9.91626C12.3632 9.59409 12.1045 9.33293 11.7852 9.33293C11.466 9.33293 11.2072 9.59409 11.2072 9.91626Z" fill="white"/>
<path d="M7.73914 8.75041C7.61931 8.75133 7.50215 8.71463 7.40389 8.64541L5.09185 7.00041C4.96724 6.9112 4.88269 6.77582 4.8567 6.62388C4.8307 6.47194 4.86537 6.31579 4.95313 6.18958C4.99693 6.12649 5.05269 6.07278 5.11717 6.03155C5.18165 5.99033 5.25359 5.9624 5.32883 5.94939C5.40406 5.93637 5.48111 5.93852 5.55551 5.95572C5.62992 5.97291 5.70022 6.00481 5.76234 6.04958L7.73914 7.44374L9.70438 5.95041C9.82701 5.85758 9.98117 5.81773 10.1329 5.83961C10.2847 5.86148 10.4216 5.94331 10.5136 6.06708C10.6056 6.19084 10.6451 6.34642 10.6234 6.49957C10.6017 6.65273 10.5206 6.79092 10.398 6.88374L8.08595 8.63374C7.98589 8.70947 7.8642 8.75041 7.73914 8.75041Z" fill="white"/>
<path d="M7.73902 7.58333C7.58572 7.58333 7.4387 7.52187 7.33031 7.41248C7.22191 7.30308 7.16101 7.15471 7.16101 7V2.33333C7.16101 2.17862 7.22191 2.03025 7.33031 1.92085C7.4387 1.81146 7.58572 1.75 7.73902 1.75C7.89232 1.75 8.03934 1.81146 8.14774 1.92085C8.25613 2.03025 8.31703 2.17862 8.31703 2.33333V7C8.31703 7.15471 8.25613 7.30308 8.14774 7.41248C8.03934 7.52187 7.89232 7.58333 7.73902 7.58333Z" fill="white"/>
</svg>
