<svg width="14" height="12" viewBox="0 0 14 12" fill="none" xmlns="http://www.w3.org/2000/svg">
<path d="M7.33207 1.6C8.31393 1.6 9.25215 1.88763 10.089 2.41352C12.6123 3.99921 12.6137 8.00198 10.0902 9.58739C9.25411 10.1127 8.31595 10.4 7.33207 10.4C6.34819 10.4 5.41002 10.1127 4.57389 9.58739C2.05039 8.00198 2.05181 3.99921 4.57513 2.41352C5.41199 1.88763 6.35021 1.6 7.33207 1.6ZM7.33207 0C5.29774 0 3.45506 1.03586 2.11064 2.71429C0.592918 4.60906 0.592918 7.39094 2.11064 9.28571C3.45506 10.9641 5.29774 12 7.33207 12C9.36639 12 11.2091 10.9641 12.5535 9.28571C14.0712 7.39094 14.0712 4.60906 12.5535 2.71429C11.2091 1.03586 9.36639 0 7.33207 0ZM7.33207 4C8.20224 4 8.90846 4.896 8.90846 6C8.90846 7.104 8.20224 8 7.33207 8C6.4619 8 5.75567 7.104 5.75567 6C5.75567 4.896 6.4619 4 7.33207 4ZM7.33207 2.4C5.76828 2.4 4.49456 4.016 4.49456 6C4.49456 7.984 5.76828 9.6 7.33207 9.6C8.89585 9.6 10.1696 7.984 10.1696 6C10.1696 4.016 8.89585 2.4 7.33207 2.4Z" fill="white"/>
</svg>
