<svg width="30" height="30" viewBox="0 0 30 30" fill="none" xmlns="http://www.w3.org/2000/svg">
<g clip-path="url(#clip0_290_1323)">
<path d="M25.625 3.75L25.425 3.7875L18.75 6.375L11.25 3.75L4.2 6.125C3.9375 6.2125 3.75 6.4375 3.75 6.725V25.625C3.75 25.975 4.025 26.25 4.375 26.25L4.575 26.2125L11.25 23.625L18.75 26.25L25.8 23.875C26.0625 23.7875 26.25 23.5625 26.25 23.275V4.375C26.25 4.025 25.975 3.75 25.625 3.75ZM12.5 6.8375L17.5 8.5875V23.1625L12.5 21.4125V6.8375ZM6.25 8.075L10 6.8125V21.4375L6.25 22.8875V8.075ZM23.75 21.925L20 23.1875V8.575L23.75 7.125V21.925Z" fill="white"/>
</g>
<defs>
<clipPath id="clip0_290_1323">
<rect width="30" height="30" fill="white"/>
</clipPath>
</defs>
</svg>
