<svg width="20" height="20" viewBox="0 0 20 20" fill="none" xmlns="http://www.w3.org/2000/svg">
<path d="M10.0087 15.4309C9.92673 15.3507 9.87191 15.2469 9.85201 15.1339L8.81256 10.0274L3.70607 8.98797C3.58152 8.96105 3.46921 8.89408 3.38631 8.79731C3.30341 8.70053 3.25448 8.57927 3.247 8.45207C3.23952 8.32486 3.27389 8.1987 3.34488 8.09287C3.41586 7.98705 3.51954 7.90737 3.64007 7.86603L13.5396 4.5662C13.6417 4.53325 13.751 4.52914 13.8554 4.55432C13.9598 4.57949 14.0552 4.63299 14.1311 4.7089C14.207 4.78482 14.2605 4.88021 14.2857 4.98458C14.3108 5.08894 14.3067 5.19823 14.2738 5.30041L10.9739 15.1999C10.9337 15.3224 10.854 15.4281 10.7472 15.5005C10.6405 15.5729 10.5128 15.6079 10.3841 15.6C10.2426 15.5911 10.1092 15.531 10.0087 15.4309ZM9.72001 9.11997C9.80024 9.20146 9.85475 9.30473 9.87676 9.41695L10.5573 12.7622L12.7971 6.04287L6.07782 8.28264L9.42303 8.96322C9.53525 8.98523 9.63852 9.03974 9.72001 9.11997Z" fill="white"/>
</svg>
