<svg xmlns="http://www.w3.org/2000/svg" width="10" height="11" viewBox="0 0 10 11" fill="none">
<g clip-path="url(#clip0_203_1356)">
<path d="M7.91667 1.74984H6.175C6 1.2665 5.54167 0.916504 5 0.916504C4.45833 0.916504 4 1.2665 3.825 1.74984H2.08333C1.625 1.74984 1.25 2.12484 1.25 2.58317V8.4165C1.25 8.87484 1.625 9.24984 2.08333 9.24984H7.91667C8.375 9.24984 8.75 8.87484 8.75 8.4165V2.58317C8.75 2.12484 8.375 1.74984 7.91667 1.74984ZM5 1.74984C5.22917 1.74984 5.41667 1.93734 5.41667 2.1665C5.41667 2.39567 5.22917 2.58317 5 2.58317C4.77083 2.58317 4.58333 2.39567 4.58333 2.1665C4.58333 1.93734 4.77083 1.74984 5 1.74984ZM5.41667 7.58317H3.33333C3.10417 7.58317 2.91667 7.39567 2.91667 7.1665C2.91667 6.93734 3.10417 6.74984 3.33333 6.74984H5.41667C5.64583 6.74984 5.83333 6.93734 5.83333 7.1665C5.83333 7.39567 5.64583 7.58317 5.41667 7.58317ZM6.66667 5.9165H3.33333C3.10417 5.9165 2.91667 5.729 2.91667 5.49984C2.91667 5.27067 3.10417 5.08317 3.33333 5.08317H6.66667C6.89583 5.08317 7.08333 5.27067 7.08333 5.49984C7.08333 5.729 6.89583 5.9165 6.66667 5.9165ZM6.66667 4.24984H3.33333C3.10417 4.24984 2.91667 4.06234 2.91667 3.83317C2.91667 3.604 3.10417 3.4165 3.33333 3.4165H6.66667C6.89583 3.4165 7.08333 3.604 7.08333 3.83317C7.08333 4.06234 6.89583 4.24984 6.66667 4.24984Z" fill="#ffffff"/>
</g>
<defs fill="#ffffff">
<clipPath id="clip0_203_1356" fill="#ffffff">
<rect width="10" height="10" fill="#ffffff" transform="translate(0 0.5)"/>
</clipPath>
</defs>
</svg>