<svg width="14" height="14" viewBox="0 0 14 14" fill="none" xmlns="http://www.w3.org/2000/svg">
<path d="M12.635 2.47904C12.5189 2.37707 12.3671 2.32533 12.2129 2.33517C12.0587 2.34501 11.9147 2.41564 11.8125 2.53154L10.7217 3.7857L10.3542 3.37154C10.2513 3.2555 10.1065 3.18509 9.95174 3.1758C9.79695 3.1665 9.6448 3.21907 9.52876 3.32195C9.41273 3.42484 9.34232 3.5696 9.33302 3.72439C9.32372 3.87919 9.3763 4.03134 9.47918 4.14737L10.29 5.05737C10.3452 5.11853 10.4127 5.16731 10.4881 5.20049C10.5636 5.23367 10.6451 5.2505 10.7275 5.24987C10.8094 5.24894 10.8901 5.23081 10.9645 5.19664C11.0388 5.16247 11.1052 5.11303 11.1592 5.05154L12.6817 3.30154C12.7844 3.18619 12.8371 3.03482 12.8284 2.88064C12.8196 2.72646 12.7501 2.58203 12.635 2.47904Z" fill="white"/>
<path d="M5.83333 6.41667C6.29482 6.41667 6.74595 6.27982 7.12966 6.02343C7.51338 5.76704 7.81245 5.40262 7.98905 4.97626C8.16566 4.5499 8.21186 4.08075 8.12183 3.62812C8.0318 3.1755 7.80957 2.75974 7.48325 2.43342C7.15693 2.1071 6.74117 1.88487 6.28854 1.79484C5.83592 1.7048 5.36677 1.75101 4.94041 1.92762C4.51404 2.10422 4.14963 2.40329 3.89324 2.787C3.63685 3.17072 3.5 3.62184 3.5 4.08333C3.5 4.70217 3.74583 5.29567 4.18342 5.73325C4.621 6.17084 5.21449 6.41667 5.83333 6.41667ZM5.83333 2.91667C6.06408 2.91667 6.28964 2.98509 6.4815 3.11329C6.67336 3.24148 6.82289 3.42369 6.91119 3.63687C6.9995 3.85005 7.0226 4.08463 6.97758 4.31094C6.93257 4.53725 6.82145 4.74513 6.65829 4.90829C6.49513 5.07145 6.28725 5.18257 6.06094 5.22758C5.83463 5.2726 5.60005 5.2495 5.38687 5.16119C5.17369 5.07289 4.99148 4.92336 4.86329 4.7315C4.73509 4.53964 4.66667 4.31408 4.66667 4.08333C4.66667 3.77392 4.78958 3.47717 5.00838 3.25838C5.22717 3.03958 5.52391 2.91667 5.83333 2.91667Z" fill="white"/>
<path d="M5.83333 7.58325C4.75037 7.58325 3.71175 8.01346 2.94598 8.77923C2.18021 9.54501 1.75 10.5836 1.75 11.6666C1.75 11.8213 1.81146 11.9697 1.92085 12.0791C2.03025 12.1885 2.17862 12.2499 2.33333 12.2499C2.48804 12.2499 2.63642 12.1885 2.74581 12.0791C2.85521 11.9697 2.91667 11.8213 2.91667 11.6666C2.91667 10.893 3.22396 10.1512 3.77094 9.60419C4.31792 9.05721 5.05979 8.74992 5.83333 8.74992C6.60688 8.74992 7.34875 9.05721 7.89573 9.60419C8.44271 10.1512 8.75 10.893 8.75 11.6666C8.75 11.8213 8.81146 11.9697 8.92086 12.0791C9.03025 12.1885 9.17862 12.2499 9.33333 12.2499C9.48804 12.2499 9.63642 12.1885 9.74581 12.0791C9.85521 11.9697 9.91667 11.8213 9.91667 11.6666C9.91667 10.5836 9.48646 9.54501 8.72069 8.77923C7.95491 8.01346 6.9163 7.58325 5.83333 7.58325Z" fill="white"/>
</svg>
