<svg width="14" height="14" viewBox="0 0 14 14" fill="none" xmlns="http://www.w3.org/2000/svg">
<path d="M10.15 12.8332C7.76844 12.8302 5.48529 11.8827 3.80125 10.1987C2.11722 8.51464 1.16977 6.23148 1.16669 3.8499C1.16669 3.13824 1.44939 2.45572 1.95262 1.9525C2.45584 1.44928 3.13836 1.16657 3.85002 1.16657C4.00072 1.16542 4.15117 1.1791 4.29919 1.2074C4.44228 1.22858 4.58296 1.26375 4.71919 1.3124C4.815 1.34602 4.90038 1.40407 4.96688 1.4808C5.03338 1.55753 5.0787 1.65029 5.09835 1.7499L5.89752 5.2499C5.91906 5.34491 5.91647 5.44379 5.88997 5.53754C5.86348 5.63128 5.81393 5.7169 5.74585 5.78657C5.67002 5.86824 5.66419 5.87407 4.94669 6.2474C5.52127 7.5079 6.52939 8.52016 7.78752 9.0999C8.16669 8.37657 8.17252 8.37074 8.25419 8.2949C8.32386 8.22682 8.40948 8.17728 8.50322 8.15078C8.59696 8.12429 8.69585 8.1217 8.79085 8.14324L12.2909 8.9424C12.3873 8.96478 12.4764 9.01132 12.5499 9.07765C12.6234 9.14399 12.6788 9.22793 12.7109 9.32157C12.7601 9.46003 12.7972 9.60251 12.8217 9.7474C12.8452 9.89401 12.8569 10.0423 12.8567 10.1907C12.8459 10.8994 12.5553 11.575 12.0482 12.07C11.5411 12.5651 10.8587 12.8395 10.15 12.8332ZM3.85002 2.33324C3.44825 2.33477 3.06337 2.49506 2.77927 2.77916C2.49517 3.06325 2.33489 3.44813 2.33335 3.8499C2.3349 5.92254 3.15893 7.90984 4.62451 9.37542C6.09008 10.841 8.07738 11.665 10.15 11.6666C10.5518 11.665 10.9367 11.5047 11.2208 11.2207C11.5049 10.9366 11.6652 10.5517 11.6667 10.1499C11.6667 10.0857 11.6667 10.0216 11.6667 9.9574L8.96002 9.33324L8.79085 9.65407C8.52835 10.1616 8.33585 10.5291 7.84585 10.3307C6.8792 9.98474 6.00176 9.42776 5.27728 8.70025C4.5528 7.97275 3.99948 7.09299 3.65752 6.1249C3.44752 5.6699 3.84419 5.4599 4.34585 5.1974L4.66669 5.0399L4.04252 2.33324H3.85002Z" fill="white"/>
</svg>
