<svg width="30" height="30" viewBox="0 0 30 30" fill="none" xmlns="http://www.w3.org/2000/svg">
<path d="M3.93749 13.5937C4.07811 13.5937 4.26561 13.5469 4.40624 13.5L9.60936 11.6719C10.1719 11.4844 10.4531 10.875 10.2656 10.3125C10.0781 9.75 9.46874 9.46875 8.90624 9.65625L5.67186 10.7812C7.21874 6.75 11.1562 4.03125 15.6562 4.03125C20.5781 4.03125 24.8437 7.3125 26.0625 12C26.2031 12.5625 26.7656 12.8906 27.3281 12.75C27.8906 12.6094 28.2187 12.0469 28.0781 11.4844C26.625 5.85937 21.5156 1.92188 15.6094 1.92188C10.3594 1.92188 5.71874 5.01563 3.79686 9.65625L2.81249 6.84375C2.62499 6.28125 2.01561 6 1.45311 6.1875C0.890612 6.375 0.609362 6.98437 0.796862 7.54688L2.57811 12.6562C2.85936 13.2656 3.37499 13.5937 3.93749 13.5937Z" fill="black"/>
<path d="M29.1094 23.2969L27.1875 18.2812C27.0469 17.9531 26.8125 17.6719 26.4844 17.5313C26.1562 17.3906 25.7812 17.3906 25.4531 17.5313L20.2969 19.5C19.7344 19.6875 19.5 20.2969 19.6875 20.8594C19.875 21.4219 20.4844 21.6562 21.0469 21.4687L24.2812 20.25C22.4062 23.6719 18.75 25.9219 14.6719 25.9219C10.0312 25.9219 5.95311 23.0156 4.49999 18.7031C4.31249 18.1406 3.70311 17.8594 3.18749 18.0469C2.62499 18.2344 2.34374 18.8437 2.53124 19.3594C4.26561 24.5156 9.14061 27.9844 14.6719 27.9844C19.5 27.9844 23.8594 25.3125 26.0625 21.1875L27.1406 24.0469C27.2812 24.4687 27.7031 24.7031 28.125 24.7031C28.2656 24.7031 28.3594 24.7031 28.5 24.6094C29.0625 24.4687 29.2969 23.8594 29.1094 23.2969Z" fill="black"/>
</svg>
