<svg width="14" height="14" viewBox="0 0 14 14" fill="none" xmlns="http://www.w3.org/2000/svg">
<path d="M12.2331 3.49966H9.34301V2.5255C9.32945 2.15206 9.16972 1.79928 8.89885 1.5445C8.62797 1.28972 8.26805 1.15373 7.89798 1.16633H6.16395C5.79388 1.15373 5.43396 1.28972 5.16308 1.5445C4.89221 1.79928 4.73248 2.15206 4.71892 2.5255V3.49966H1.82887C1.67557 3.49966 1.52855 3.56112 1.42015 3.67052C1.31175 3.77992 1.25085 3.92829 1.25085 4.083C1.25085 4.23771 1.31175 4.38608 1.42015 4.49548C1.52855 4.60487 1.67557 4.66633 1.82887 4.66633H2.40688V11.083C2.40688 11.5471 2.58957 11.9922 2.91476 12.3204C3.23996 12.6486 3.68101 12.833 4.14091 12.833H9.92102C10.3809 12.833 10.822 12.6486 11.1472 12.3204C11.4724 11.9922 11.6551 11.5471 11.6551 11.083V4.66633H12.2331C12.3864 4.66633 12.5334 4.60487 12.6418 4.49548C12.7502 4.38608 12.8111 4.23771 12.8111 4.083C12.8111 3.92829 12.7502 3.77992 12.6418 3.67052C12.5334 3.56112 12.3864 3.49966 12.2331 3.49966ZM5.87494 2.5255C5.87494 2.43216 5.99632 2.333 6.16395 2.333H7.89798C8.0656 2.333 8.18699 2.43216 8.18699 2.5255V3.49966H5.87494V2.5255ZM10.499 11.083C10.499 11.2377 10.4381 11.3861 10.3297 11.4955C10.2213 11.6049 10.0743 11.6663 9.92102 11.6663H4.14091C3.98761 11.6663 3.84059 11.6049 3.73219 11.4955C3.6238 11.3861 3.5629 11.2377 3.5629 11.083V4.66633H10.499V11.083Z" fill="white"/>
<path d="M5.29694 9.91626C5.45024 9.91626 5.59726 9.8548 5.70566 9.74541C5.81406 9.63601 5.87495 9.48764 5.87495 9.33293V6.99959C5.87495 6.84488 5.81406 6.69651 5.70566 6.58711C5.59726 6.47772 5.45024 6.41626 5.29694 6.41626C5.14365 6.41626 4.99663 6.47772 4.88823 6.58711C4.77983 6.69651 4.71893 6.84488 4.71893 6.99959V9.33293C4.71893 9.48764 4.77983 9.63601 4.88823 9.74541C4.99663 9.8548 5.14365 9.91626 5.29694 9.91626Z" fill="white"/>
<path d="M8.76502 9.91626C8.91832 9.91626 9.06534 9.8548 9.17374 9.74541C9.28214 9.63601 9.34303 9.48764 9.34303 9.33293V6.99959C9.34303 6.84488 9.28214 6.69651 9.17374 6.58711C9.06534 6.47772 8.91832 6.41626 8.76502 6.41626C8.61172 6.41626 8.46471 6.47772 8.35631 6.58711C8.24791 6.69651 8.18701 6.84488 8.18701 6.99959V9.33293C8.18701 9.48764 8.24791 9.63601 8.35631 9.74541C8.46471 9.8548 8.61172 9.91626 8.76502 9.91626Z" fill="white"/>
</svg>
