<svg width="12" height="12" viewBox="0 0 12 12" fill="none" xmlns="http://www.w3.org/2000/svg">
<path d="M6.00008 1.99984C6.73342 1.99984 7.33342 2.59984 7.33342 3.33317C7.33342 4.0665 6.73342 4.6665 6.00008 4.6665C5.26675 4.6665 4.66675 4.0665 4.66675 3.33317C4.66675 2.59984 5.26675 1.99984 6.00008 1.99984ZM6.00008 8.6665C7.80008 8.6665 9.86675 9.5265 10.0001 9.99984H2.00008C2.15341 9.51984 4.20675 8.6665 6.00008 8.6665ZM6.00008 0.666504C4.52675 0.666504 3.33341 1.85984 3.33341 3.33317C3.33341 4.8065 4.52675 5.99984 6.00008 5.99984C7.47341 5.99984 8.66675 4.8065 8.66675 3.33317C8.66675 1.85984 7.47341 0.666504 6.00008 0.666504ZM6.00008 7.33317C4.22008 7.33317 0.666748 8.2265 0.666748 9.99984V11.3332H11.3334V9.99984C11.3334 8.2265 7.78008 7.33317 6.00008 7.33317Z" fill="#393A3D"/>
</svg>
