<svg width="180" height="136" viewBox="0 0 180 136" fill="none" xmlns="http://www.w3.org/2000/svg">
<path d="M149.773 103.144H30.2265C30.1668 103.144 30.1096 103.12 30.0674 103.078C30.0252 103.036 30.0015 102.979 30.0015 102.919C30.0015 102.859 30.0252 102.802 30.0674 102.76C30.1096 102.718 30.1668 102.694 30.2265 102.694H149.773C149.833 102.694 149.89 102.718 149.933 102.76C149.975 102.802 149.998 102.859 149.998 102.919C149.998 102.979 149.975 103.036 149.933 103.078C149.89 103.12 149.833 103.144 149.773 103.144Z" fill="#D1D3D4"/>
<path d="M139.356 29.1818V89.4323C139.356 90.5506 138.912 91.6231 138.121 92.4138C137.33 93.2046 136.258 93.6488 135.14 93.6488H46.35C45.2318 93.6488 44.1593 93.2046 43.3685 92.4138C42.5778 91.6231 42.1335 90.5506 42.1335 89.4323V29.1818C42.1335 28.0635 42.5778 26.9911 43.3685 26.2003C44.1593 25.4096 45.2318 24.9653 46.35 24.9653H135.14C136.258 24.9653 137.33 25.4096 138.121 26.2003C138.912 26.9911 139.356 28.0635 139.356 29.1818Z" fill="white"/>
<path d="M135.14 93.8333H46.35C45.1811 93.8321 44.06 93.3688 43.2314 92.5443C42.4027 91.7199 41.9336 90.6012 41.9265 89.4323V29.1818C41.9277 28.009 42.3941 26.8845 43.2234 26.0552C44.0528 25.2259 45.1772 24.7595 46.35 24.7583H135.14C136.312 24.7595 137.437 25.2259 138.266 26.0552C139.095 26.8845 139.562 28.009 139.563 29.1818V89.4323C139.556 90.6012 139.087 91.7199 138.258 92.5443C137.43 93.3688 136.308 93.8321 135.14 93.8333ZM46.35 25.1723C45.287 25.1735 44.2679 25.5963 43.5162 26.348C42.7645 27.0996 42.3417 28.1188 42.3405 29.1818V89.4323C42.3417 90.4953 42.7645 91.5145 43.5162 92.2661C44.2679 93.0178 45.287 93.4406 46.35 93.4418H135.14C136.203 93.4406 137.222 93.0178 137.973 92.2661C138.725 91.5145 139.148 90.4953 139.149 89.4323V29.1818C139.149 28.1184 138.727 27.0986 137.975 26.3467C137.223 25.5947 136.203 25.1723 135.14 25.1723H46.35Z" fill="#231F20"/>
<path d="M139.356 29.1818V82.6823H42.156V29.1818C42.156 28.0674 42.5971 26.9983 43.383 26.2082C44.1689 25.4181 45.2356 24.9713 46.35 24.9653H135.139C136.258 24.9653 137.33 25.4096 138.121 26.2003C138.912 26.9911 139.356 28.0635 139.356 29.1818Z" fill="#231F20"/>
<path d="M134.203 29.9692H46.1204V78.6862H134.203V29.9692Z" fill="white"/>
<path d="M134.208 78.8932H46.1205C46.0664 78.892 46.0149 78.8697 45.977 78.831C45.9392 78.7923 45.918 78.7403 45.918 78.6862V29.9692C45.9174 29.9422 45.9222 29.9154 45.9321 29.8903C45.942 29.8652 45.9569 29.8424 45.9757 29.8231C45.9946 29.8038 46.0171 29.7885 46.042 29.778C46.0668 29.7676 46.0935 29.7622 46.1205 29.7622H134.208C134.263 29.7622 134.316 29.784 134.354 29.8228C134.393 29.8617 134.415 29.9143 134.415 29.9692V78.6862C134.414 78.7407 134.392 78.7927 134.353 78.8313C134.315 78.8699 134.263 78.8921 134.208 78.8932ZM46.35 78.4792H134.001V30.1717H46.35V78.4792Z" fill="#231F20"/>
<path d="M90.7427 90.3906C90.2977 90.3906 89.8627 90.2587 89.4926 90.0114C89.1226 89.7642 88.8342 89.4128 88.6639 89.0017C88.4937 88.5905 88.4491 88.1381 88.5359 87.7017C88.6227 87.2652 88.837 86.8643 89.1517 86.5496C89.4664 86.235 89.8673 86.0207 90.3037 85.9339C90.7402 85.847 91.1926 85.8916 91.6037 86.0619C92.0148 86.2322 92.3662 86.5206 92.6135 86.8906C92.8607 87.2606 92.9927 87.6956 92.9927 88.1406C92.9927 88.7374 92.7556 89.3097 92.3337 89.7316C91.9117 90.1536 91.3394 90.3906 90.7427 90.3906ZM90.7427 86.3406C90.3867 86.3406 90.0387 86.4462 89.7426 86.644C89.4466 86.8418 89.2159 87.1229 89.0797 87.4518C88.9435 87.7807 88.9078 88.1426 88.9773 88.4918C89.0467 88.841 89.2182 89.1617 89.4699 89.4134C89.7216 89.6651 90.0423 89.8366 90.3915 89.906C90.7407 89.9755 91.1026 89.9398 91.4315 89.8036C91.7604 89.6674 92.0415 89.4367 92.2393 89.1407C92.4371 88.8446 92.5427 88.4966 92.5427 88.1406C92.5403 87.6648 92.3496 87.2093 92.0123 86.8736C91.675 86.538 91.2185 86.3496 90.7427 86.3496V86.3406Z" fill="#D1D3D4"/>
<path d="M102.227 101.272C101.291 99.8991 101.138 93.6216 101.138 93.6216H80.3522C80.3522 93.6216 80.1947 99.8901 79.2587 101.272C78.3227 102.653 74.6597 104.872 74.6597 105.673C74.6597 106.474 75.2042 106.753 77.8547 106.753H103.631C106.281 106.753 106.826 106.465 106.826 105.673C106.826 104.881 103.163 102.644 102.227 101.272Z" fill="white"/>
<path d="M103.631 106.982H77.8501C75.5011 106.982 74.4526 106.793 74.4526 105.695C74.4526 105.2 75.2941 104.498 76.6666 103.396C77.6476 102.608 78.6646 101.798 79.0831 101.177C79.9831 99.8723 80.1406 93.7073 80.1406 93.6443C80.143 93.591 80.1658 93.5406 80.2044 93.5037C80.2429 93.4668 80.2943 93.4462 80.3476 93.4463H101.133C101.187 93.4462 101.238 93.4668 101.276 93.5037C101.315 93.5406 101.338 93.591 101.34 93.6443C101.34 93.7073 101.502 99.8723 102.393 101.177C102.816 101.798 103.829 102.608 104.81 103.396C106.187 104.498 107.028 105.196 107.028 105.695C107.033 106.771 105.984 106.982 103.631 106.982ZM80.5501 93.8333C80.5141 94.9403 80.3026 100.111 79.4296 101.389C78.9796 102.055 77.9356 102.887 76.9276 103.693C76.0591 104.395 74.8666 105.349 74.8666 105.673C74.8666 106.199 75.0736 106.546 77.8546 106.546H103.631C106.412 106.546 106.623 106.199 106.623 105.673C106.623 105.349 105.431 104.395 104.558 103.693C103.554 102.887 102.515 102.055 102.06 101.389C101.187 100.111 100.971 94.9403 100.935 93.8333H80.5501Z" fill="#231F20"/>
<path d="M100.769 100.417H80.7211C80.6614 100.417 80.6042 100.393 80.562 100.351C80.5198 100.309 80.4961 100.251 80.4961 100.192C80.4961 100.132 80.5198 100.075 80.562 100.033C80.6042 99.9905 80.6614 99.9668 80.7211 99.9668H100.769C100.828 99.9668 100.885 99.9905 100.928 100.033C100.97 100.075 100.994 100.132 100.994 100.192C100.994 100.251 100.97 100.309 100.928 100.351C100.885 100.393 100.828 100.417 100.769 100.417Z" fill="#D1D3D4"/>
<path d="M80.7208 73.1152C80.6897 73.1149 80.6589 73.1084 80.6303 73.096C80.6017 73.0836 80.5759 73.0657 80.5543 73.0432C80.5333 73.0223 80.5165 72.9974 80.5051 72.97C80.4937 72.9426 80.4878 72.9132 80.4878 72.8835C80.4878 72.8538 80.4937 72.8244 80.5051 72.7969C80.5165 72.7695 80.5333 72.7446 80.5543 72.7237L121.882 34.3927C121.903 34.3716 121.928 34.3549 121.956 34.3435C121.983 34.3321 122.012 34.3262 122.042 34.3262C122.072 34.3262 122.101 34.3321 122.129 34.3435C122.156 34.3549 122.181 34.3716 122.202 34.3927C122.223 34.4129 122.241 34.4373 122.252 34.4644C122.264 34.4915 122.27 34.5207 122.27 34.5502C122.27 34.5797 122.264 34.609 122.252 34.636C122.241 34.6631 122.223 34.6875 122.202 34.7077L80.8693 73.0522C80.8301 73.092 80.7767 73.1147 80.7208 73.1152Z" fill="#D1D3D4"/>
<path d="M55.1565 70.4106C55.1103 70.4111 55.0651 70.3973 55.027 70.3712C54.9889 70.3451 54.9597 70.3079 54.9435 70.2646C54.9273 70.2214 54.9248 70.1742 54.9363 70.1294C54.9479 70.0847 54.9729 70.0446 55.008 70.0146L80.5725 48.2796C80.5949 48.2604 80.621 48.2458 80.649 48.2366C80.6771 48.2275 80.7068 48.224 80.7362 48.2263C80.7657 48.2286 80.7944 48.2366 80.8207 48.25C80.8471 48.2634 80.8705 48.2819 80.8897 48.3043C80.9089 48.3268 80.9235 48.3528 80.9327 48.3809C80.9418 48.409 80.9454 48.4386 80.9431 48.4681C80.9408 48.4976 80.9327 48.5263 80.9193 48.5526C80.9059 48.579 80.8874 48.6024 80.865 48.6216L55.3005 70.3566C55.2605 70.3913 55.2094 70.4105 55.1565 70.4106Z" fill="#D1D3D4"/>
<path d="M109.989 70.411C109.943 70.4106 109.899 70.3962 109.861 70.3697C109.824 70.3432 109.795 70.306 109.78 70.2629C109.764 70.2199 109.762 70.1731 109.774 70.1288C109.785 70.0845 109.81 70.0448 109.845 70.015L123.975 58.0225C123.997 58.003 124.023 57.988 124.05 57.9785C124.078 57.9691 124.108 57.9653 124.137 57.9674C124.166 57.9695 124.195 57.9774 124.221 57.9907C124.248 58.0041 124.271 58.0225 124.29 58.045C124.328 58.0913 124.346 58.1506 124.341 58.2103C124.336 58.27 124.308 58.3253 124.263 58.3645L110.137 70.357C110.096 70.3917 110.043 70.4108 109.989 70.411Z" fill="#D1D3D4"/>
<path d="M58.8104 47.7715C58.7767 47.7707 58.7436 47.7627 58.7133 47.7479C58.683 47.7332 58.6562 47.7121 58.6349 47.686C58.5976 47.6399 58.5799 47.581 58.5858 47.522C58.5917 47.4631 58.6207 47.4088 58.6664 47.371L74.5199 34.384C74.5421 34.3617 74.5687 34.3444 74.5981 34.333C74.6274 34.3217 74.6588 34.3166 74.6902 34.3181C74.7217 34.3197 74.7524 34.3278 74.7805 34.342C74.8086 34.3561 74.8334 34.376 74.8533 34.4004C74.8733 34.4247 74.8878 34.453 74.8962 34.4833C74.9045 34.5137 74.9064 34.5454 74.9017 34.5766C74.8969 34.6077 74.8858 34.6374 74.8688 34.664C74.8519 34.6905 74.8296 34.7131 74.8034 34.7305L58.9499 47.7175C58.9111 47.7512 58.8617 47.7703 58.8104 47.7715Z" fill="#D1D3D4"/>
<path d="M102.533 48.8198C102.533 48.8198 99.9451 45.7238 98.9776 45.2468C97.0741 44.3108 93.6271 46.8308 93.8341 47.1458C94.0411 47.4608 96.8716 47.1818 97.2586 47.1818C97.6456 47.1818 98.8831 48.4103 98.8831 48.4103C98.8831 48.4103 100.301 50.2103 100.908 51.2228" fill="white"/>
<path d="M100.908 51.4476C100.87 51.4479 100.832 51.4381 100.799 51.4191C100.766 51.4001 100.738 51.3727 100.719 51.3396C100.121 50.3631 98.7212 48.5676 98.7032 48.5496C98.2901 48.0893 97.8016 47.7028 97.2587 47.4066C97.1777 47.4066 96.9797 47.4066 96.7232 47.4381C94.5182 47.5866 93.8297 47.5461 93.6452 47.2671C93.5057 47.0556 93.7172 46.8171 93.7892 46.7406C94.4687 45.9711 97.3442 44.1936 99.0767 45.0441C100.076 45.5346 102.6 48.5451 102.704 48.6756C102.723 48.6978 102.738 48.7238 102.747 48.7518C102.756 48.7798 102.759 48.8094 102.757 48.8388C102.754 48.8681 102.746 48.8967 102.732 48.9228C102.718 48.9488 102.7 48.9719 102.677 48.9906C102.63 49.0287 102.571 49.0472 102.511 49.0421C102.452 49.0371 102.396 49.0089 102.357 48.9636C101.651 48.1131 99.6572 45.8136 98.8742 45.4446C98.0912 45.0756 97.1327 45.3321 96.4262 45.6066C95.567 45.9298 94.7807 46.4208 94.1132 47.0511C94.9731 47.0872 95.8345 47.0662 96.6917 46.9881C96.9662 46.9881 97.1732 46.9566 97.2587 46.9566C97.7087 46.9566 98.6537 47.8566 99.0587 48.2526C99.1352 48.3471 100.512 50.1066 101.12 51.1056C101.135 51.1309 101.146 51.1591 101.15 51.1885C101.155 51.2179 101.153 51.2479 101.146 51.2768C101.139 51.3056 101.126 51.3328 101.109 51.3567C101.091 51.3806 101.069 51.4008 101.043 51.4161C101.003 51.4411 100.955 51.4522 100.908 51.4476Z" fill="#231F20"/>
<path d="M92.0166 44.8045L92.5041 44.0966L98.8493 48.4658C98.9476 48.5334 99.015 48.6374 99.0367 48.7548C99.0583 48.8721 99.0324 48.9933 98.9648 49.0916C98.8971 49.1899 98.7931 49.2573 98.6757 49.2789C98.5584 49.3006 98.4372 49.2747 98.3389 49.207L91.9937 44.8379L92.0166 44.8045Z" fill="white"/>
<path d="M98.6042 49.4767C98.4708 49.476 98.3407 49.4353 98.2307 49.3597L91.8857 44.9902C91.838 44.9558 91.8054 44.9044 91.7945 44.8467C91.7836 44.7889 91.7953 44.7291 91.8272 44.6797L92.3177 43.9822C92.3337 43.9573 92.3548 43.936 92.3796 43.9197C92.4044 43.9034 92.4324 43.8925 92.4617 43.8877C92.4904 43.8813 92.5202 43.8812 92.5489 43.8874C92.5777 43.8936 92.6047 43.906 92.6282 43.9237L98.9732 48.2932C99.081 48.366 99.1646 48.4693 99.2132 48.5899C99.2619 48.7104 99.2735 48.8428 99.2464 48.97C99.2193 49.0972 99.1548 49.2134 99.0613 49.3037C98.9677 49.394 98.8493 49.4542 98.7212 49.4767H98.6042ZM92.3042 44.7472L98.4647 48.9907C98.4863 49.0069 98.5113 49.018 98.5377 49.0235C98.5641 49.0289 98.5914 49.0285 98.6177 49.0222C98.6443 49.0181 98.6697 49.0083 98.6922 48.9936C98.7147 48.9788 98.7338 48.9595 98.7482 48.9367C98.7637 48.9149 98.7747 48.8903 98.7806 48.8642C98.7865 48.838 98.7872 48.811 98.7826 48.7847C98.778 48.7583 98.7682 48.7331 98.7538 48.7106C98.7394 48.688 98.7207 48.6685 98.6987 48.6532L92.5607 44.4322L92.3042 44.7472Z" fill="#231F20"/>
<path d="M91.8 41.4083L91.845 42.0653C91.6577 41.1153 91.1009 40.2785 90.297 39.7388L90.2115 40.2158C89.9292 39.8754 89.7401 39.4676 89.6625 39.0323C89.622 38.7893 89.541 38.4653 89.2935 38.4653C89.046 38.4653 88.7985 38.9963 88.515 38.8703C88.4387 38.821 88.3804 38.7484 88.3485 38.6633C88.1505 38.2583 87.9705 37.8443 87.813 37.4258C87.4041 37.5235 87.0197 37.7043 86.6835 37.9568C86.5175 37.7369 86.278 37.5841 86.0086 37.5263C85.7393 37.4685 85.4581 37.5095 85.2165 37.6418C85.1382 37.6784 85.0711 37.7352 85.022 37.8064C84.973 37.8776 84.9438 37.9606 84.9375 38.0468C84.9375 38.1188 84.9645 38.1863 84.9645 38.2583C84.9511 38.3463 84.9118 38.4283 84.8518 38.494C84.7917 38.5597 84.7135 38.606 84.627 38.6273C84.4515 38.6813 84.267 38.6858 84.1005 38.7443C83.8899 38.8368 83.7204 39.0032 83.6243 39.2122C83.5281 39.4212 83.5118 39.6581 83.5785 39.8783C83.6565 40.0933 83.7879 40.285 83.9603 40.4353C84.1326 40.5857 84.3404 40.6897 84.564 40.7378C84.4695 41.2823 84.9645 41.7638 85.491 41.9303C85.6769 41.975 85.8578 42.0383 86.031 42.1193C86.2595 42.287 86.4652 42.4836 86.643 42.7043C86.8692 42.9243 87.1455 43.086 87.4481 43.1754C87.7508 43.2648 88.0706 43.2792 88.38 43.2173C88.3805 43.3936 88.4271 43.5667 88.5154 43.7193C88.6036 43.8719 88.7303 43.9987 88.8829 44.087C89.0354 44.1754 89.2085 44.2222 89.3848 44.2227C89.5611 44.2233 89.7344 44.1776 89.8875 44.0903C89.9219 44.1879 89.9785 44.2761 90.0529 44.348C90.1273 44.4199 90.2174 44.4734 90.3161 44.5044C90.4148 44.5354 90.5194 44.543 90.6215 44.5266C90.7236 44.5102 90.8205 44.4702 90.9045 44.4098C90.6075 44.6573 91.539 44.9498 91.692 44.9138C92.1066 44.7345 92.4456 44.4162 92.6505 44.0138C93.0825 43.1903 92.43 41.9753 91.8 41.4083Z" fill="white"/>
<path d="M91.6738 45.1342C91.3166 45.114 90.977 44.9727 90.7108 44.7337C90.5635 44.7737 90.4081 44.7737 90.2608 44.7337C90.0786 44.6722 89.9209 44.5539 89.8108 44.3962C89.647 44.4522 89.4732 44.473 89.3008 44.4571C89.1284 44.4412 88.9613 44.3891 88.8104 44.3041C88.6596 44.2191 88.5284 44.1032 88.4255 43.964C88.3226 43.8247 88.2503 43.6653 88.2133 43.4962C87.9034 43.5234 87.5914 43.4831 87.2985 43.3782C87.0057 43.2734 86.739 43.1064 86.5168 42.8887C86.4493 42.8212 86.3863 42.7492 86.3233 42.6817C86.22 42.5469 86.0954 42.4298 85.9543 42.3352C85.8464 42.2841 85.7332 42.2449 85.6168 42.2182L85.4503 42.1687C85.1662 42.0928 84.9111 41.9342 84.7172 41.7131C84.5233 41.492 84.3994 41.2183 84.3613 40.9267C84.1267 40.8542 83.9132 40.7258 83.7392 40.5526C83.5652 40.3794 83.4359 40.1665 83.3623 39.9322C83.2776 39.6572 83.2984 39.3605 83.4207 39.1001C83.5431 38.8396 83.7581 38.6341 84.0238 38.5237C84.1265 38.4907 84.2319 38.4666 84.3388 38.4517C84.4131 38.441 84.4867 38.426 84.5593 38.4067C84.6583 38.3752 84.7393 38.3032 84.7393 38.2492C84.7415 38.2268 84.7415 38.2042 84.7393 38.1817C84.7034 38.0343 84.7208 37.879 84.7883 37.7431C84.8558 37.6073 84.9691 37.4996 85.1083 37.4392C85.3653 37.297 85.6609 37.2405 85.9522 37.2777C86.2435 37.3149 86.5153 37.444 86.7283 37.6462C87.0475 37.4398 87.3988 37.2877 87.7678 37.1962C87.8215 37.1828 87.8782 37.1895 87.9272 37.2153C87.9762 37.241 88.0139 37.2839 88.0333 37.3357C88.1884 37.7507 88.3641 38.1577 88.5598 38.5552C88.5739 38.5935 88.5953 38.6286 88.6228 38.6587C88.6733 38.6149 88.7214 38.5683 88.7668 38.5192C88.8294 38.4348 88.9099 38.3653 89.0024 38.3155C89.095 38.2657 89.1974 38.2369 89.3023 38.2312C89.7523 38.2312 89.8558 38.7802 89.8963 38.9872C89.9373 39.215 90.0132 39.4351 90.1213 39.6397C90.1444 39.5912 90.1844 39.5528 90.2338 39.5317C90.2662 39.514 90.3026 39.5047 90.3396 39.5047C90.3765 39.5047 90.4129 39.514 90.4453 39.5317C91.042 39.9451 91.5111 40.5172 91.7998 41.1832C91.856 41.1848 91.9099 41.2054 91.9528 41.2417C92.6008 41.8447 93.3253 43.1722 92.8528 44.1262C92.6176 44.5828 92.2241 44.938 91.7458 45.1252L91.6738 45.1342ZM91.1068 44.4952C91.2764 44.5919 91.4626 44.656 91.6558 44.6842C91.9922 44.5167 92.2688 44.2496 92.4478 43.9192C92.7223 43.3882 92.4478 42.6412 92.0833 42.0787C92.0805 42.1304 92.0596 42.1796 92.0242 42.2174C91.9888 42.2553 91.9412 42.2794 91.8898 42.2857C91.8327 42.2937 91.7748 42.2795 91.7279 42.246C91.681 42.2125 91.6488 42.1623 91.6378 42.1057C91.4851 41.3341 91.0721 40.6383 90.4678 40.1347L90.4453 40.2517C90.4388 40.2942 90.42 40.334 90.3912 40.3659C90.3624 40.3979 90.3249 40.4208 90.2833 40.4317C90.2422 40.4427 90.1987 40.4417 90.1581 40.429C90.1175 40.4162 90.0813 40.3922 90.0538 40.3597C89.7366 39.9903 89.5238 39.5429 89.4373 39.0637C89.3698 38.6812 89.2888 38.6722 89.2843 38.6812C89.2798 38.6902 89.1403 38.7712 89.0728 38.8387C88.9288 38.9827 88.7083 39.1987 88.4158 39.0637C88.2905 38.9959 88.1932 38.8859 88.1413 38.7532C87.9703 38.4067 87.8128 38.0512 87.6913 37.6867C87.3804 37.788 87.0885 37.94 86.8273 38.1367C86.8038 38.1545 86.7769 38.1672 86.7482 38.1742C86.7196 38.1811 86.6899 38.1822 86.6608 38.1772C86.631 38.1739 86.6023 38.1641 86.5767 38.1485C86.551 38.133 86.5291 38.1121 86.5123 38.0872C86.3821 37.9091 86.191 37.785 85.9753 37.7386C85.7596 37.6921 85.5343 37.7265 85.3423 37.8352C85.2388 37.8982 85.1713 37.9792 85.1713 38.0377V38.1007C85.1757 38.1531 85.1757 38.2058 85.1713 38.2582C85.161 38.3955 85.1076 38.526 85.0187 38.631C84.9298 38.7361 84.81 38.8104 84.6763 38.8432C84.5832 38.8692 84.4885 38.8887 84.3928 38.9017C84.3119 38.9128 84.2321 38.9308 84.1543 38.9557C83.9992 39.0292 83.8758 39.156 83.8064 39.3129C83.737 39.4699 83.7263 39.6466 83.7763 39.8107C83.842 39.9884 83.9522 40.1463 84.0964 40.2692C84.2406 40.3921 84.4139 40.476 84.5998 40.5127C84.6556 40.5257 84.7044 40.5594 84.7361 40.6071C84.7679 40.6547 84.7803 40.7127 84.7708 40.7692C84.6988 41.1787 85.1038 41.5702 85.5403 41.7097L85.6888 41.7502C85.8447 41.7862 85.9958 41.8405 86.1388 41.9122C86.328 42.0315 86.4942 42.1839 86.6293 42.3622C86.6878 42.4252 86.7418 42.4882 86.8003 42.5467C87.0004 42.7391 87.244 42.8804 87.5103 42.9588C87.7766 43.0371 88.0579 43.0501 88.3303 42.9967C88.3632 42.9905 88.397 42.9913 88.4296 42.9991C88.4622 43.0068 88.4927 43.0214 88.5193 43.0417C88.5449 43.0635 88.5657 43.0903 88.5805 43.1205C88.5952 43.1507 88.6035 43.1836 88.6048 43.2172C88.6071 43.3538 88.6443 43.4875 88.7128 43.6056C88.7813 43.7237 88.8789 43.8224 88.9963 43.8922C89.1156 43.9576 89.2495 43.9919 89.3855 43.9919C89.5216 43.9919 89.6555 43.9576 89.7748 43.8922C89.8055 43.8768 89.8394 43.8687 89.8738 43.8687C89.9082 43.8687 89.9421 43.8768 89.9728 43.8922C90.0048 43.9048 90.0333 43.9248 90.056 43.9507C90.0787 43.9765 90.0949 44.0074 90.1033 44.0407C90.1286 44.1007 90.1666 44.1544 90.2147 44.1983C90.2628 44.2421 90.3198 44.275 90.3818 44.2947C90.4438 44.3144 90.5094 44.3203 90.574 44.3122C90.6385 44.3041 90.7006 44.2821 90.7558 44.2477C90.802 44.2096 90.8613 44.1911 90.921 44.1962C90.9807 44.2012 91.0361 44.2294 91.0753 44.2747C91.0997 44.3054 91.1154 44.3419 91.1209 44.3807C91.1265 44.4194 91.1216 44.459 91.1068 44.4952Z" fill="#231F20"/>
<path d="M99.3374 48.2976C99.3374 48.2976 95.6519 48.7161 95.6069 48.1716C95.5619 47.6271 98.6174 47.1816 98.6174 47.1816" fill="white"/>
<path d="M96.984 48.676C96.4844 48.7272 95.9801 48.6465 95.5215 48.442C95.4435 48.3797 95.3934 48.2891 95.382 48.19C95.3415 47.6905 96.4215 47.29 98.586 46.9615C98.6449 46.9536 98.7045 46.969 98.7523 47.0042C98.8002 47.0395 98.8325 47.0919 98.8425 47.1505C98.8502 47.21 98.8343 47.2703 98.7981 47.3182C98.7619 47.3662 98.7084 47.3981 98.649 47.407C97.353 47.596 96.1515 47.9155 95.877 48.1315C96.2775 48.289 97.9065 48.235 99.315 48.0775C99.3746 48.0709 99.4345 48.0883 99.4813 48.1259C99.5281 48.1634 99.5581 48.2181 99.5647 48.2777C99.5713 48.3374 99.5539 48.3972 99.5163 48.4441C99.4788 48.4909 99.4241 48.5209 99.3645 48.5275C98.574 48.6169 97.7794 48.6665 96.984 48.676Z" fill="#231F20"/>
<path d="M144.221 68.665C144.221 68.665 149.873 71.338 150.336 72.0355C150.8 72.733 150.786 76.0585 149.774 75.469C148.541 74.758 142.893 71.3245 142.893 71.3245L144.221 68.665Z" fill="white"/>
<path d="M149.999 75.7657C149.879 75.7638 149.763 75.7296 149.661 75.6667C148.442 74.9602 142.835 71.5492 142.781 71.5177C142.732 71.4894 142.695 71.4431 142.679 71.3886C142.663 71.3342 142.669 71.2756 142.695 71.2252L144.018 68.5657C144.031 68.5393 144.048 68.5156 144.07 68.496C144.092 68.4764 144.117 68.4614 144.145 68.4517C144.173 68.4421 144.202 68.4381 144.231 68.4399C144.26 68.4417 144.289 68.4493 144.315 68.4622C145.269 68.9122 150.048 71.1982 150.525 71.9092C150.939 72.5212 151.029 74.9152 150.422 75.5677C150.369 75.6289 150.304 75.6782 150.232 75.7123C150.159 75.7465 150.079 75.7647 149.999 75.7657ZM143.19 71.2387C144.158 71.8282 148.793 74.6452 149.886 75.2887C150.003 75.3562 150.044 75.3247 150.093 75.2887C150.521 74.8387 150.498 72.7012 150.152 72.1837C149.805 71.6662 146.498 70.0282 144.302 68.9887L143.19 71.2387Z" fill="#231F20"/>
<path d="M115.79 77.755C115.79 77.755 117.356 85.378 117.986 86.755C118.616 88.132 123.75 102.73 123.633 103.563C123.516 104.395 122.378 107.932 122.378 107.932C122.378 107.932 125.618 109.791 127.499 104.467C127.499 104.467 124.038 86.377 124.038 85.8775V75.145L115.79 77.755Z" fill="white"/>
<path d="M123.696 108.472C123.198 108.477 122.706 108.357 122.265 108.125C122.22 108.101 122.185 108.061 122.166 108.014C122.147 107.966 122.146 107.913 122.162 107.864C122.162 107.828 123.309 104.341 123.408 103.535C123.507 102.73 118.404 88.186 117.779 86.8315C117.153 85.477 115.637 78.115 115.569 77.8C115.559 77.7453 115.568 77.6887 115.596 77.6407C115.625 77.5927 115.669 77.5565 115.722 77.539L123.971 74.929C124.005 74.9192 124.041 74.9173 124.076 74.9235C124.111 74.9298 124.144 74.944 124.173 74.965C124.202 74.9854 124.225 75.0125 124.24 75.0439C124.256 75.0752 124.264 75.1099 124.263 75.145V85.8775C124.286 86.3815 126.765 99.436 127.719 104.422C127.728 104.46 127.728 104.501 127.719 104.539C127.004 106.559 126.014 107.819 124.767 108.283C124.424 108.41 124.061 108.474 123.696 108.472ZM122.652 107.815C123.277 108.07 123.975 108.085 124.61 107.855C125.708 107.446 126.603 106.298 127.265 104.449C126.86 102.329 123.813 86.3815 123.813 85.8775V75.451L116.051 77.908C116.303 79.114 117.635 85.4455 118.188 86.6425C118.805 87.9925 123.975 102.649 123.854 103.594C123.75 104.336 122.895 107.059 122.652 107.815Z" fill="#231F20"/>
<path d="M129.704 79.1901C129.704 79.1901 130.127 88.3521 130.829 89.5401C131.531 90.7281 142.619 98.5941 142.619 98.5941L143.969 94.7961C143.969 94.7961 136.418 88.2801 136.269 87.0156C136.121 85.7511 134.402 76.8726 134.402 76.8726L129.704 79.1901Z" fill="white"/>
<path d="M142.618 98.8058C142.572 98.8056 142.526 98.7915 142.488 98.7653C141.349 97.9553 131.341 90.8273 130.635 89.6438C129.928 88.4603 129.519 80.1443 129.478 79.2038C129.476 79.16 129.487 79.1166 129.508 79.0784C129.53 79.0402 129.561 79.0088 129.6 78.9878L134.284 76.6568C134.315 76.6413 134.349 76.6333 134.383 76.6333C134.418 76.6333 134.452 76.6413 134.482 76.6568C134.513 76.672 134.54 76.6941 134.561 76.7214C134.582 76.7487 134.597 76.7805 134.604 76.8143C134.676 77.1788 136.327 85.7153 136.476 86.9753C136.575 87.8348 141.205 92.1143 144.094 94.6253C144.129 94.6547 144.155 94.6942 144.167 94.7385C144.179 94.7827 144.177 94.8296 144.162 94.8728L142.812 98.6708C142.8 98.7038 142.782 98.7336 142.757 98.7578C142.732 98.7821 142.701 98.8001 142.668 98.8103C142.651 98.8111 142.634 98.8096 142.618 98.8058ZM129.933 79.3253C130.059 81.9623 130.482 88.5053 131.022 89.4098C131.562 90.3143 139.27 95.9213 142.506 98.2253L143.685 94.8548C142.506 93.8333 136.179 88.2938 136.035 87.0293C135.904 85.9133 134.523 78.7358 134.235 77.1923L129.933 79.3253Z" fill="#231F20"/>
<path d="M127.498 104.467C127.498 104.467 128.353 106.771 128.353 107.257C128.353 107.743 127.174 108.805 126.616 108.733C126.058 108.661 126.13 107.932 126.13 107.932C126.01 108.399 125.793 108.835 125.493 109.213C125.193 109.59 124.817 109.901 124.389 110.123C122.926 110.893 119.376 110.893 119.583 110.123C119.79 109.354 122.764 106.442 122.764 106.442C122.764 106.442 125.338 107.581 127.498 104.467Z" fill="#231F20"/>
<path d="M121.356 110.92C120.735 110.972 120.112 110.851 119.556 110.569C119.478 110.513 119.419 110.435 119.386 110.345C119.353 110.255 119.348 110.158 119.371 110.065C119.592 109.264 122.305 106.586 122.611 106.285C122.644 106.254 122.684 106.233 122.728 106.225C122.772 106.217 122.818 106.222 122.859 106.24C122.958 106.28 125.293 107.257 127.318 104.336C127.342 104.303 127.374 104.276 127.411 104.26C127.448 104.243 127.489 104.237 127.53 104.242C127.57 104.248 127.608 104.264 127.639 104.29C127.671 104.315 127.695 104.348 127.71 104.386C127.8 104.629 128.583 106.744 128.583 107.257C128.583 107.707 128.034 108.206 127.867 108.355C127.701 108.503 127.08 109.016 126.594 108.953C126.497 108.944 126.403 108.915 126.318 108.868C126.232 108.821 126.158 108.756 126.099 108.679C125.755 109.385 125.193 109.962 124.497 110.326C123.503 110.741 122.433 110.944 121.356 110.92ZM122.823 106.703C121.684 107.828 119.938 109.682 119.799 110.186C119.799 110.186 119.853 110.254 120.006 110.308C120.861 110.627 123.219 110.483 124.285 109.925C124.683 109.717 125.033 109.427 125.313 109.075C125.593 108.723 125.796 108.317 125.91 107.882C125.914 107.853 125.924 107.824 125.939 107.799C125.954 107.773 125.974 107.75 125.998 107.732C126.022 107.715 126.049 107.701 126.078 107.694C126.107 107.686 126.137 107.685 126.166 107.689C126.196 107.693 126.224 107.703 126.25 107.718C126.276 107.733 126.298 107.753 126.316 107.777C126.334 107.801 126.347 107.828 126.355 107.857C126.362 107.886 126.364 107.916 126.36 107.945C126.36 107.945 126.319 108.458 126.652 108.503C127.006 108.446 127.331 108.271 127.575 108.008C127.835 107.818 128.032 107.553 128.137 107.248C127.97 106.456 127.737 105.679 127.44 104.926C125.55 107.351 123.399 106.883 122.823 106.703Z" fill="#231F20"/>
<path d="M119.25 49.8325C119.25 49.8325 107.518 55.453 107.248 54.9985C106.978 54.544 102.721 47.8525 102.721 47.8525L99.7378 50.188C99.7378 50.188 104.08 59.251 106.794 60.2455C109.507 61.24 119.25 56.6455 119.25 56.6455V49.8325Z" fill="#CF0A0A"/>
<path d="M117.531 70.5322C117.531 70.5322 114.066 83.2357 113.972 89.7472C113.972 89.7472 130.766 99.0037 139.811 83.8387L129.888 63.9307L117.531 70.5322Z" fill="#CF0A0A"/>
<path d="M118.503 50.0752C118.566 49.7557 128.304 48.5542 130.716 50.6377C133.965 53.4412 129.888 63.9487 129.888 63.9487C129.888 63.9487 125.186 71.1847 121.658 69.5827C118.13 67.9807 117.824 66.5587 117.824 66.5587C117.266 61.0598 117.495 55.5095 118.503 50.0752Z" fill="#CF0A0A"/>
<path d="M130.716 50.6377C133.789 53.1262 136.566 62.5267 137.745 63.6472C138.721 64.5832 144.774 68.6242 144.774 68.6242L143.19 72.0352C143.19 72.0352 136.723 69.6007 134.415 66.9862C133.168 65.5732 132.723 63.6967 132.165 62.5267C130.644 59.1787 130.716 50.6377 130.716 50.6377Z" fill="#CF0A0A"/>
<path d="M117.63 65.8074C117.572 65.8074 117.516 65.785 117.474 65.7447C117.432 65.7044 117.407 65.6495 117.405 65.5914C117.405 65.1909 117.027 55.7499 118.363 51.0654C118.371 51.0358 118.385 51.0081 118.404 50.9839C118.422 50.9597 118.446 50.9393 118.472 50.9241C118.499 50.9088 118.528 50.8989 118.558 50.895C118.589 50.8911 118.62 50.8931 118.649 50.9011C118.679 50.9091 118.706 50.9228 118.731 50.9415C118.755 50.9602 118.775 50.9834 118.79 51.01C118.806 51.0365 118.815 51.0658 118.819 51.0961C118.823 51.1265 118.821 51.1573 118.813 51.1869C117.49 55.8039 117.864 65.4744 117.868 65.5869C117.87 65.6164 117.865 65.6459 117.855 65.6737C117.844 65.7015 117.829 65.7269 117.809 65.7487C117.789 65.7704 117.765 65.788 117.738 65.8003C117.711 65.8127 117.682 65.8197 117.652 65.8209L117.63 65.8074Z" fill="#231F20"/>
<path d="M128.209 49.54C128.209 49.54 127.237 54.0895 125.428 56.713C123.619 59.3365 121.045 58.342 120.883 56.713C120.721 55.084 122.125 49.126 122.125 49.126L120.001 49.675C120.001 49.675 119.551 54.175 117.576 55.6285C116.712 58.099 117.576 67.252 117.576 67.252C117.576 67.252 113.526 79.5145 115.776 82.228C120.276 87.628 129.874 81.3595 130.207 65.578L131.413 59.845C131.413 59.845 128.457 54.301 129.874 49.5355L128.209 49.54Z" fill="white"/>
<path d="M119.664 84.3564C118.883 84.3514 118.113 84.1703 117.412 83.8267C116.711 83.4831 116.096 82.9859 115.614 82.3719C113.341 79.6494 117.036 68.1699 117.342 67.2294C117.27 66.4374 116.509 57.9774 117.342 55.5519C117.356 55.5104 117.383 55.4743 117.418 55.4484C119.286 54.0984 119.754 49.6974 119.758 49.6524C119.762 49.6066 119.78 49.5632 119.81 49.5284C119.84 49.4936 119.88 49.4692 119.925 49.4589L122.044 48.9054C122.082 48.8967 122.122 48.8975 122.16 48.9077C122.197 48.9179 122.232 48.9372 122.26 48.9639C122.288 48.991 122.308 49.0246 122.319 49.0615C122.33 49.0985 122.332 49.1377 122.323 49.1754C122.323 49.2339 120.928 55.1199 121.086 56.6904C121.133 57.0151 121.277 57.3181 121.499 57.5592C121.722 57.8002 122.012 57.968 122.332 58.0404C123.336 58.2969 124.411 57.7524 125.221 56.5824C126.981 54.0264 127.957 49.5309 127.966 49.4859C127.977 49.4355 128.005 49.3903 128.045 49.3583C128.085 49.3262 128.135 49.3093 128.187 49.3104H129.865C129.9 49.3096 129.935 49.3174 129.967 49.3331C129.998 49.3488 130.025 49.3719 130.045 49.4004C130.067 49.4278 130.082 49.4602 130.088 49.4948C130.095 49.5294 130.092 49.565 130.081 49.5984C128.704 54.2199 131.575 59.6829 131.607 59.7414C131.625 59.7892 131.625 59.842 131.607 59.8899L130.401 65.6229C130.18 76.2474 125.802 82.5204 121.563 84.0054C120.954 84.2282 120.312 84.3468 119.664 84.3564ZM117.769 55.7634C116.964 58.2564 117.792 67.1439 117.801 67.2339C117.808 67.2635 117.808 67.2943 117.801 67.3239C117.765 67.4454 113.814 79.4739 115.978 82.0839C116.605 82.8939 117.478 83.4782 118.466 83.7485C119.454 84.0188 120.503 83.9605 121.455 83.5824C125.55 82.1469 129.775 76.0224 130.005 65.5824L131.202 59.8854C130.846 59.2014 128.43 54.2559 129.6 49.7694H128.398C128.196 50.6694 127.255 54.4764 125.622 56.8434C124.722 58.1934 123.444 58.7919 122.251 58.4814C121.842 58.3867 121.471 58.1692 121.189 57.8579C120.907 57.5467 120.726 57.1565 120.672 56.7399C120.528 55.3089 121.527 50.7729 121.833 49.4409L120.217 49.8594C120.109 50.6739 119.56 54.3774 117.769 55.7634Z" fill="#231F20"/>
<path d="M127.318 37.7678C128.348 37.6862 129.375 37.9541 130.234 38.5283C130.637 38.82 130.973 39.1952 131.218 39.6282C131.463 40.0612 131.612 40.5419 131.655 41.0376C131.697 41.5333 131.633 42.0323 131.465 42.5009C131.298 42.9694 131.031 43.3964 130.684 43.7528C130.362 44.0445 129.976 44.2576 129.558 44.3755C129.14 44.4934 128.699 44.5128 128.272 44.4323C127.361 44.254 126.526 43.7994 125.882 43.1304C125.238 42.4614 124.816 41.6103 124.672 40.6928C124.515 39.0323 125.698 37.8623 127.318 37.7678Z" fill="white"/>
<path d="M128.767 44.7023C128.589 44.7028 128.412 44.6877 128.236 44.6573C127.277 44.4698 126.399 43.9911 125.722 43.2865C125.045 42.5819 124.601 41.6856 124.452 40.7198C124.406 40.3381 124.44 39.951 124.552 39.5831C124.663 39.2152 124.85 38.8744 125.1 38.5823C125.38 38.2678 125.721 38.0135 126.102 37.8348C126.484 37.6562 126.897 37.5568 127.318 37.5428C128.4 37.4571 129.479 37.7411 130.378 38.3483C130.812 38.6608 131.171 39.0645 131.432 39.531C131.692 39.9975 131.847 40.5154 131.886 41.0483C131.93 41.5723 131.86 42.0996 131.678 42.5933C131.497 43.087 131.21 43.535 130.837 43.9058C130.279 44.4332 129.535 44.7193 128.767 44.7023ZM127.318 37.7678V37.9883C126.957 38.0016 126.601 38.0883 126.274 38.243C125.947 38.3977 125.655 38.6172 125.415 38.8883C125.208 39.1363 125.055 39.4239 124.963 39.7334C124.872 40.043 124.845 40.3679 124.884 40.6883C125.019 41.5565 125.419 42.3618 126.028 42.9947C126.638 43.6276 127.428 44.0573 128.29 44.2253C128.681 44.2956 129.082 44.2762 129.464 44.1687C129.846 44.0611 130.199 43.8681 130.495 43.6043C130.819 43.2781 131.067 42.8851 131.222 42.4529C131.378 42.0207 131.437 41.5597 131.395 41.1023C131.363 40.6326 131.228 40.1757 131 39.7643C130.771 39.3528 130.454 38.9968 130.072 38.7218C129.272 38.1803 128.314 37.9221 127.35 37.9883L127.318 37.7678Z" fill="#231F20"/>
<path d="M120.897 40.8324C121.616 40.0636 122.579 39.5673 123.622 39.4279C124.666 39.2884 125.725 39.5144 126.621 40.0674C128.916 41.4579 130.109 45.8409 127.094 47.2044C126.929 47.2573 126.776 47.3414 126.644 47.4519C126.541 47.5865 126.465 47.7391 126.419 47.9019C125.708 49.7019 123.66 49.9314 122.108 49.1619C121.59 48.8901 121.108 48.5562 120.672 48.1674C118.521 46.2864 118.962 42.7854 120.897 40.8324Z" fill="white"/>
<path d="M123.849 49.7601C123.214 49.7559 122.59 49.6017 122.026 49.3101C121.49 49.0344 120.991 48.6911 120.541 48.2886C120.077 47.887 119.702 47.3923 119.44 46.8365C119.179 46.2806 119.038 45.6761 119.025 45.0621C118.999 44.2474 119.138 43.436 119.433 42.676C119.727 41.9161 120.172 41.2232 120.739 40.6386C121.495 39.8374 122.503 39.3205 123.594 39.1746C124.686 39.0287 125.794 39.2628 126.733 39.8376C127.493 40.3524 128.109 41.0512 128.526 41.8688C128.942 42.6864 129.144 43.5961 129.114 44.5131C129.097 45.1241 128.906 45.7177 128.564 46.2244C128.223 46.7312 127.744 47.1303 127.183 47.3751L127.102 47.4111C127 47.4448 126.905 47.4983 126.823 47.5686C126.758 47.6554 126.708 47.7528 126.675 47.8566L126.648 47.9331C126.509 48.2991 126.294 48.6316 126.017 48.9085C125.74 49.1854 125.408 49.4005 125.041 49.5396C124.661 49.6845 124.257 49.7592 123.849 49.7601ZM124.24 39.5946C123.647 39.5956 123.059 39.7155 122.513 39.9474C121.967 40.1793 121.472 40.5184 121.059 40.9446C120.536 41.4857 120.127 42.126 119.854 42.8277C119.582 43.5293 119.453 44.2783 119.475 45.0306C119.484 45.5825 119.609 46.1264 119.842 46.6271C120.074 47.1278 120.409 47.5742 120.825 47.9376C121.247 48.3148 121.714 48.6382 122.215 48.9006C122.621 49.1141 123.065 49.2429 123.521 49.2793C123.978 49.3156 124.437 49.2588 124.87 49.1121C125.178 48.9951 125.457 48.8143 125.69 48.5816C125.923 48.3489 126.103 48.0696 126.22 47.7621L126.247 47.6946C126.295 47.529 126.378 47.3755 126.49 47.2446C126.613 47.1279 126.759 47.0376 126.918 46.9791L126.99 46.9476C127.476 46.7377 127.892 46.3923 128.187 45.9526C128.482 45.513 128.645 44.9976 128.655 44.4681C128.678 43.6335 128.492 42.8063 128.115 42.0615C127.738 41.3166 127.181 40.6775 126.495 40.2021C125.812 39.7999 125.033 39.5899 124.24 39.5946Z" fill="#231F20"/>
<path d="M122.688 49.6658L122.454 52.3028C122.454 52.3028 122.688 53.5403 124.492 53.2838C126.297 53.0273 126.67 51.8438 126.67 51.8438L126.931 46.8938C126.931 46.8938 124.312 45.1568 124.969 42.3623C124.56 42.9848 123.969 43.4664 123.277 43.7417C122.585 44.017 121.824 44.0727 121.099 43.9013C120.952 45.1995 120.885 46.5054 120.897 47.8118C120.978 49.2113 122.688 49.6658 122.688 49.6658Z" fill="white"/>
<path d="M124.029 53.5448C122.481 53.5448 122.229 52.3613 122.229 52.3478C122.227 52.3269 122.227 52.3058 122.229 52.2848L122.445 49.8233C121.973 49.6568 120.749 49.0988 120.677 47.8388C120.661 46.519 120.727 45.1995 120.875 43.8878C120.878 43.8564 120.889 43.8261 120.905 43.799C120.921 43.7718 120.943 43.7484 120.969 43.7303C120.995 43.7125 121.024 43.7001 121.055 43.6939C121.086 43.6877 121.118 43.6879 121.149 43.6943C121.828 43.8539 122.539 43.8019 123.188 43.5453C123.836 43.2887 124.39 42.8397 124.776 42.2588C124.803 42.2112 124.846 42.1749 124.898 42.1568C124.949 42.1387 125.006 42.1399 125.056 42.1603C125.107 42.1807 125.148 42.2188 125.173 42.2676C125.198 42.3163 125.204 42.3724 125.19 42.4253C124.574 45.0353 126.954 46.6508 127.053 46.7183C127.085 46.74 127.111 46.7696 127.129 46.8043C127.146 46.839 127.154 46.8776 127.152 46.9163L126.896 51.8663C126.898 51.8842 126.898 51.9024 126.896 51.9203C126.896 51.9743 126.446 53.2478 124.533 53.5178C124.366 53.5397 124.198 53.5488 124.029 53.5448ZM122.679 52.2893C122.724 52.4468 123.03 53.2658 124.479 53.0633C125.987 52.8518 126.405 51.9518 126.468 51.7988L126.716 47.0153C126.266 46.6778 124.578 45.2558 124.659 43.1138C124.231 43.5504 123.702 43.8761 123.12 44.0627C122.537 44.2493 121.918 44.2912 121.316 44.1848C121.181 45.3889 121.122 46.6003 121.14 47.8118C121.212 49.0178 122.747 49.4453 122.765 49.4498C122.815 49.4633 122.86 49.4941 122.89 49.5368C122.92 49.5795 122.935 49.6315 122.931 49.6838L122.679 52.2893Z" fill="#231F20"/>
<path d="M126.108 46.6825C126.23 46.3935 126.446 46.1545 126.722 46.0049C126.998 45.8552 127.316 45.8038 127.625 45.859C128.376 46.0525 128.286 46.9165 127.994 47.452C127.905 47.6146 127.785 47.758 127.641 47.8739C127.496 47.9897 127.33 48.0758 127.152 48.127C126.791 48.2285 126.405 48.1832 126.077 48.001" fill="white"/>
<path d="M126.769 48.4101C126.488 48.4094 126.211 48.3383 125.964 48.2031C125.919 48.1697 125.888 48.121 125.876 48.0663C125.865 48.0115 125.874 47.9545 125.901 47.9058C125.929 47.8572 125.974 47.8203 126.026 47.8022C126.079 47.784 126.137 47.7858 126.189 47.8072C126.323 47.8844 126.472 47.934 126.626 47.9532C126.78 47.9724 126.937 47.9607 127.086 47.9188C127.236 47.8769 127.376 47.8057 127.497 47.7092C127.619 47.6128 127.72 47.4931 127.795 47.3572C127.884 47.2118 127.942 47.0496 127.966 46.8808C127.989 46.7119 127.977 46.5401 127.93 46.3762C127.896 46.3035 127.845 46.2399 127.782 46.1906C127.719 46.1414 127.645 46.1078 127.566 46.0927C127.313 46.0496 127.053 46.0927 126.828 46.2151C126.603 46.3376 126.425 46.5322 126.324 46.7677C126.304 46.8273 126.261 46.8767 126.205 46.905C126.149 46.9333 126.084 46.9381 126.024 46.9184C125.965 46.8987 125.915 46.8561 125.887 46.8C125.859 46.7439 125.854 46.6788 125.874 46.6192C126.014 46.2733 126.27 45.9874 126.599 45.8114C126.928 45.6354 127.308 45.5805 127.674 45.6562C127.819 45.6872 127.955 45.7524 128.07 45.8463C128.185 45.9402 128.276 46.0601 128.335 46.1962C128.41 46.4229 128.436 46.6632 128.411 46.9008C128.385 47.1383 128.309 47.3676 128.187 47.5732C128.047 47.828 127.841 48.0408 127.591 48.1895C127.341 48.3382 127.056 48.4175 126.765 48.4192L126.769 48.4101Z" fill="#231F20"/>
<path d="M123.201 45.4131C123.201 45.4131 122.099 46.6641 122.301 46.9341C122.504 47.2041 123.12 47.1231 123.12 47.1231" fill="white"/>
<path d="M122.9 47.3619C122.752 47.3758 122.603 47.3558 122.464 47.3036C122.326 47.2513 122.201 47.1682 122.099 47.0604C122.031 46.9614 121.811 46.6509 123.03 45.2604C123.051 45.2393 123.076 45.2226 123.103 45.2112C123.131 45.1997 123.16 45.1938 123.19 45.1938C123.22 45.1938 123.249 45.1997 123.276 45.2112C123.304 45.2226 123.329 45.2393 123.35 45.2604C123.371 45.2809 123.387 45.3054 123.399 45.3325C123.41 45.3595 123.416 45.3886 123.416 45.4179C123.416 45.4472 123.41 45.4763 123.399 45.5033C123.387 45.5304 123.371 45.5549 123.35 45.5754C122.993 45.9488 122.697 46.3754 122.472 46.8399C122.656 46.9203 122.859 46.9454 123.057 46.9119C123.116 46.9066 123.176 46.9242 123.222 46.961C123.269 46.9978 123.3 47.051 123.309 47.1099C123.316 47.1694 123.298 47.2291 123.261 47.2762C123.224 47.3233 123.171 47.354 123.111 47.3619C123.041 47.3658 122.97 47.3658 122.9 47.3619Z" fill="#231F20"/>
<path d="M124.273 44.8057C124.307 44.5319 124.238 44.2981 124.12 44.2835C124.001 44.2689 123.878 44.479 123.844 44.7528C123.811 45.0266 123.879 45.2604 123.998 45.275C124.116 45.2896 124.239 45.0794 124.273 44.8057Z" fill="#231F20"/>
<path d="M122.057 44.9141C122.091 44.6403 122.022 44.4065 121.904 44.3919C121.786 44.3773 121.662 44.5874 121.629 44.8612C121.595 45.135 121.663 45.3688 121.782 45.3834C121.9 45.398 122.024 45.1879 122.057 44.9141Z" fill="#231F20"/>
<path d="M122.688 49.666C123.461 49.8079 124.26 49.6673 124.938 49.27C124.938 49.27 124.326 51.07 122.562 51.07L122.688 49.666Z" fill="#231F20"/>
<path d="M122.562 51.3171C122.531 51.317 122.5 51.3106 122.471 51.2982C122.443 51.2858 122.417 51.2677 122.396 51.2451C122.374 51.2225 122.358 51.1955 122.348 51.166C122.337 51.1365 122.334 51.1051 122.337 51.0741L122.463 49.6476C122.465 49.6145 122.475 49.5823 122.491 49.5535C122.508 49.5247 122.53 49.4999 122.558 49.4811C122.585 49.4628 122.616 49.4505 122.649 49.4451C122.681 49.4396 122.715 49.4412 122.747 49.4496C123.465 49.5688 124.203 49.4352 124.835 49.0716C124.874 49.0502 124.92 49.0414 124.965 49.0462C125.01 49.051 125.052 49.0693 125.087 49.0986C125.12 49.1284 125.144 49.1671 125.156 49.2102C125.168 49.2533 125.167 49.2988 125.154 49.3416C125.154 49.3416 124.466 51.3081 122.562 51.3171ZM122.891 49.9266L122.81 50.8536C123.152 50.8024 123.478 50.6746 123.764 50.4798C124.05 50.285 124.288 50.0282 124.461 49.7286C123.959 49.9117 123.422 49.9794 122.891 49.9266Z" fill="#231F20"/>
<path d="M123.098 48.5545C122.719 48.5418 122.349 48.445 122.013 48.271C121.987 48.2585 121.963 48.2408 121.943 48.219C121.924 48.1973 121.909 48.1718 121.899 48.1442C121.889 48.1165 121.885 48.0872 121.887 48.058C121.889 48.0288 121.897 48.0002 121.91 47.974C121.922 47.947 121.94 47.9227 121.962 47.9026C121.984 47.8825 122.01 47.867 122.038 47.857C122.066 47.8469 122.096 47.8425 122.125 47.8441C122.155 47.8456 122.184 47.8531 122.211 47.866C122.418 47.9972 122.653 48.0757 122.897 48.0946C123.141 48.1134 123.386 48.072 123.611 47.974C124.295 47.587 124.407 46.4665 124.407 46.453C124.412 46.3921 124.439 46.3353 124.485 46.2943C124.53 46.2533 124.589 46.2312 124.65 46.2325C124.68 46.2353 124.708 46.2439 124.735 46.2579C124.761 46.2719 124.784 46.291 124.803 46.314C124.822 46.337 124.836 46.3635 124.844 46.392C124.853 46.4205 124.856 46.4504 124.853 46.48C124.853 46.534 124.713 47.83 123.831 48.3475C123.609 48.4795 123.356 48.5509 123.098 48.5545Z" fill="#231F20"/>
<path d="M117.576 67.2518C117.576 67.2518 122.265 68.0213 126.077 65.9873L117.576 67.2518Z" fill="white"/>
<path d="M119.754 67.6252C119.013 67.6307 118.273 67.5811 117.54 67.4767C117.511 67.4718 117.483 67.4611 117.457 67.4453C117.432 67.4295 117.41 67.4089 117.393 67.3846C117.376 67.3604 117.364 67.3329 117.357 67.3039C117.351 67.2749 117.35 67.2449 117.355 67.2157C117.36 67.1866 117.37 67.1586 117.385 67.1335C117.401 67.1083 117.421 67.0865 117.445 67.0693C117.469 67.0521 117.496 67.0399 117.525 67.0333C117.553 67.0268 117.583 67.026 117.612 67.0312C117.657 67.0312 122.274 67.7602 125.973 65.7892C125.999 65.775 126.027 65.7661 126.056 65.763C126.085 65.7599 126.115 65.7626 126.143 65.7709C126.171 65.7793 126.197 65.7932 126.219 65.8118C126.242 65.8304 126.261 65.8533 126.274 65.8792C126.289 65.9052 126.298 65.9337 126.301 65.9632C126.304 65.9926 126.301 66.0224 126.293 66.0509C126.285 66.0793 126.271 66.1058 126.252 66.1289C126.234 66.1519 126.211 66.171 126.184 66.1852C124.187 67.1735 121.982 67.6674 119.754 67.6252Z" fill="#231F20"/>
<path d="M143.037 93.9639C143.108 94.6791 142.961 95.399 142.615 96.0289C142.268 96.6587 141.739 97.1688 141.097 97.4919C141.097 97.4919 139.617 103.054 140.647 102.919C142.78 102.631 143.959 98.8149 143.959 98.8149L144.796 98.9274C145.201 98.7744 146.317 96.6774 146.317 96.6774L143.037 93.9639Z" fill="#231F20"/>
<path d="M140.607 103.144C140.543 103.144 140.48 103.13 140.421 103.103C140.363 103.077 140.311 103.039 140.269 102.991C139.653 102.289 140.58 98.5581 140.877 97.4331C140.886 97.4021 140.902 97.3734 140.923 97.3486C140.944 97.3239 140.969 97.3036 140.998 97.2891C141.597 96.9877 142.09 96.5111 142.412 95.9227C142.733 95.3343 142.868 94.662 142.798 93.9951C142.791 93.9506 142.798 93.9049 142.818 93.8646C142.839 93.8242 142.871 93.7912 142.911 93.7701C142.95 93.7482 142.995 93.7386 143.04 93.7426C143.085 93.7466 143.128 93.764 143.163 93.7926L146.434 96.5196C146.474 96.5528 146.501 96.5987 146.511 96.6495C146.521 96.7003 146.513 96.753 146.488 96.7986C146.142 97.4466 145.287 98.9721 144.846 99.1386C144.81 99.148 144.773 99.148 144.738 99.1386L144.085 99.0486C143.815 99.8361 142.65 102.86 140.652 103.126L140.607 103.144ZM141.3 97.6446C140.634 100.183 140.323 102.487 140.62 102.698C142.591 102.433 143.739 98.7876 143.77 98.7516C143.785 98.6996 143.818 98.6548 143.864 98.6257C143.91 98.5967 143.964 98.5854 144.018 98.5941L144.778 98.6976C145.281 98.1009 145.711 97.4469 146.061 96.7491L143.302 94.4496C143.287 95.113 143.092 95.7599 142.74 96.3222C142.387 96.8845 141.89 97.3413 141.3 97.6446Z" fill="#231F20"/>
<path d="M147.956 68.9751C147.865 68.5058 147.745 68.0429 147.596 67.5891C147.509 67.2879 147.492 66.9708 147.546 66.6621C147.568 66.5369 147.633 66.4233 147.73 66.3411C147.827 66.259 147.95 66.2133 148.077 66.2121C148.563 66.1581 151.227 67.4766 152.033 67.5171L151.79 68.3856C151.79 68.3856 150.764 68.1291 150.336 68.4171C150.04 68.7017 149.847 69.0769 149.787 69.4836L147.956 68.9751Z" fill="white"/>
<path d="M149.787 69.7179H149.724L147.897 69.1824C147.857 69.1711 147.821 69.1493 147.792 69.1192C147.764 69.0891 147.744 69.0518 147.735 69.0113C147.65 68.554 147.535 68.1029 147.388 67.6613C147.282 67.3223 147.259 66.9627 147.321 66.6128C147.353 66.4402 147.444 66.2837 147.577 66.1692C147.71 66.0547 147.879 65.989 148.054 65.9829C148.329 65.9514 148.918 66.1809 149.931 66.5814C150.61 66.889 151.318 67.1258 152.046 67.2878C152.079 67.2885 152.112 67.297 152.142 67.3127C152.172 67.3283 152.197 67.3506 152.217 67.3779C152.236 67.4058 152.249 67.4376 152.254 67.4711C152.26 67.5045 152.258 67.5388 152.248 67.5714L152.005 68.4444C151.989 68.5006 151.951 68.5481 151.899 68.5767C151.848 68.6053 151.788 68.6127 151.731 68.5974C151.318 68.4686 150.875 68.4686 150.462 68.5974C150.219 68.841 150.061 69.1567 150.012 69.4974C150.007 69.5284 149.996 69.5582 149.979 69.5846C149.962 69.6109 149.939 69.6334 149.913 69.6503C149.878 69.6845 149.835 69.708 149.787 69.7179ZM148.149 68.7954L149.62 69.2094C149.702 68.8283 149.91 68.4858 150.21 68.2373C150.658 68.0465 151.156 68.0086 151.627 68.1294L151.749 67.7109C151.073 67.5218 150.41 67.2888 149.764 67.0133C149.228 66.7726 148.671 66.5813 148.099 66.4419C147.816 66.4734 147.771 66.6579 147.766 66.6984C147.719 66.9647 147.732 67.2383 147.802 67.4993C147.947 67.923 148.063 68.356 148.149 68.7954Z" fill="#231F20"/>
<path d="M147.38 70.3477C146.901 71.1031 146.278 71.7574 145.548 72.2737C144.846 72.7012 144.077 74.7397 143.636 76.0627C143.587 76.2106 143.568 76.3669 143.581 76.5222C143.594 76.6774 143.639 76.8284 143.712 76.966C143.785 77.1035 143.886 77.2248 144.007 77.3225C144.129 77.4201 144.268 77.4921 144.419 77.5342L147.893 78.5152C148.047 78.5585 148.208 78.5692 148.367 78.5466C148.525 78.524 148.677 78.4685 148.813 78.3839C148.949 78.2992 149.066 78.1871 149.156 78.0547C149.246 77.9224 149.308 77.7727 149.337 77.6152C149.571 76.2652 149.895 74.2627 149.828 73.7722C149.729 73.0252 149.027 72.0757 149.265 70.8877L147.38 70.3477Z" fill="white"/>
<path d="M148.203 78.7807C148.077 78.78 147.951 78.7634 147.829 78.7312L144.355 77.7322C144.176 77.6831 144.008 77.5973 143.864 77.4804C143.719 77.3635 143.6 77.2179 143.514 77.0527C143.425 76.8887 143.371 76.708 143.356 76.5221C143.34 76.3362 143.363 76.1492 143.424 75.9727C144.162 73.7227 144.841 72.4222 145.431 72.0622C146.132 71.5652 146.728 70.9352 147.186 70.2082C147.212 70.1668 147.25 70.1351 147.296 70.118C147.341 70.1009 147.391 70.0994 147.438 70.1137L149.328 70.6447C149.382 70.6605 149.428 70.6961 149.458 70.7445C149.487 70.7928 149.497 70.8504 149.485 70.9057C149.4 71.5652 149.506 72.2355 149.791 72.8362C149.91 73.126 149.998 73.4277 150.052 73.7362C150.106 74.1367 149.94 75.4507 149.557 77.6422C149.502 77.9605 149.337 78.2492 149.09 78.4574C148.843 78.6657 148.53 78.7801 148.207 78.7807H148.203ZM147.478 70.6087C147.002 71.3373 146.391 71.9682 145.678 72.4672C145.201 72.7552 144.54 74.0917 143.878 76.1347C143.839 76.2531 143.823 76.3784 143.833 76.503C143.843 76.6275 143.879 76.7487 143.937 76.8592C143.995 76.9694 144.076 77.0663 144.173 77.1437C144.271 77.2212 144.383 77.2775 144.504 77.3092L147.978 78.2902C148.102 78.3301 148.234 78.3424 148.364 78.3262C148.494 78.3099 148.619 78.2656 148.73 78.1962C148.841 78.1268 148.935 78.034 149.007 77.9243C149.078 77.8147 149.125 77.6907 149.143 77.5612C149.408 76.3195 149.572 75.0584 149.634 73.7902C149.582 73.5217 149.502 73.2593 149.395 73.0072C149.115 72.3898 148.993 71.7125 149.04 71.0362L147.478 70.6087Z" fill="#231F20"/>
<path d="M149.152 74.2629L145.642 73.2729C145.284 73.5925 145.025 74.0079 144.895 74.47C144.63 75.307 143.995 76.162 144.288 76.6209C144.58 77.0799 145.323 77.1609 146.412 77.5209C147.501 77.8809 148.05 78.0474 148.509 77.8629C148.968 77.6784 149.157 74.7984 149.152 74.2629Z" fill="#CF0A0A"/>
<path d="M147.294 77.0976C147.244 77.0973 147.195 77.0804 147.155 77.0495C147.115 77.0186 147.086 76.9754 147.074 76.9266C146.624 74.9691 147.974 70.7031 148.037 70.5231C148.045 70.494 148.059 70.4669 148.078 70.4434C148.097 70.4198 148.121 70.4004 148.147 70.3862C148.174 70.372 148.203 70.3633 148.233 70.3607C148.264 70.3581 148.294 70.3616 148.323 70.371C148.352 70.3803 148.378 70.3954 148.401 70.4153C148.424 70.4352 148.442 70.4595 148.455 70.4867C148.469 70.514 148.476 70.5436 148.478 70.5738C148.479 70.604 148.475 70.6342 148.464 70.6626C148.464 70.7031 147.074 74.9871 147.515 76.8186C147.528 76.8765 147.518 76.9374 147.487 76.9879C147.456 77.0385 147.406 77.0747 147.348 77.0886L147.294 77.0976Z" fill="#231F20"/>
<path d="M149.778 69.5023L147.687 68.9116L147.285 70.3321L149.377 70.9228L149.778 69.5023Z" fill="white"/>
<path d="M149.4 71.1397H149.337L147.235 70.5322C147.178 70.5138 147.128 70.4756 147.096 70.4242C147.073 70.3694 147.073 70.308 147.096 70.2532L147.496 68.8312C147.504 68.8024 147.518 68.7755 147.536 68.752C147.554 68.7284 147.577 68.7088 147.603 68.6941C147.629 68.6795 147.658 68.6701 147.687 68.6666C147.717 68.6631 147.747 68.6655 147.775 68.6737L149.85 69.2722C149.907 69.289 149.956 69.3275 149.985 69.3797C150.015 69.4318 150.023 69.4933 150.007 69.5512L149.607 70.9732C149.599 71.0019 149.586 71.0287 149.567 71.052C149.548 71.0752 149.525 71.0943 149.499 71.1082C149.469 71.1256 149.435 71.1363 149.4 71.1397ZM147.6 70.1677L149.256 70.6177L149.535 69.6277L147.879 69.1777L147.6 70.1677Z" fill="#231F20"/>
<path d="M150.336 68.4263C150.336 68.4263 150.696 69.3713 151.348 69.3983L150.336 68.4263Z" fill="white"/>
<path d="M151.348 69.6325C150.556 69.601 150.151 68.557 150.138 68.512C150.124 68.4837 150.115 68.4528 150.114 68.4212C150.112 68.3895 150.117 68.3579 150.128 68.3284C150.14 68.2988 150.157 68.272 150.18 68.2497C150.202 68.2274 150.229 68.2101 150.259 68.199C150.289 68.1878 150.32 68.1831 150.352 68.185C150.384 68.1869 150.414 68.1955 150.443 68.2102C150.471 68.2248 150.495 68.2453 150.515 68.2702C150.534 68.295 150.549 68.3237 150.556 68.3545C150.642 68.5795 150.957 69.1645 151.366 69.1825C151.426 69.1825 151.483 69.2062 151.526 69.2484C151.568 69.2906 151.591 69.3478 151.591 69.4075C151.591 69.4671 151.568 69.5244 151.526 69.5666C151.483 69.6087 151.426 69.6325 151.366 69.6325H151.348Z" fill="#231F20"/>
<path d="M152.047 67.5304L151.801 68.4009L152.758 68.6712L153.004 67.8007L152.047 67.5304Z" fill="white"/>
<path d="M152.743 68.8897H152.685L151.726 68.6197C151.697 68.6119 151.671 68.5985 151.647 68.5802C151.623 68.5619 151.604 68.5391 151.589 68.5131C151.574 68.4872 151.565 68.4586 151.562 68.429C151.558 68.3994 151.561 68.3694 151.569 68.3407L151.816 67.4722C151.824 67.4435 151.838 67.4167 151.856 67.3934C151.875 67.3702 151.898 67.351 151.924 67.3372C151.979 67.3147 152.04 67.3147 152.095 67.3372L153.054 67.6117C153.082 67.6195 153.108 67.6328 153.131 67.6508C153.154 67.6689 153.173 67.6914 153.188 67.7169C153.202 67.7425 153.211 67.7706 153.214 67.7996C153.217 67.8287 153.215 67.8581 153.207 67.8862L152.964 68.7592C152.944 68.815 152.906 68.8625 152.856 68.8942C152.818 68.9015 152.78 68.9 152.743 68.8897ZM152.064 68.2372L152.59 68.3857L152.712 67.9357L152.19 67.7872L152.064 68.2372Z" fill="#231F20"/>
<path d="M144.221 72.13C144.441 72.436 144.671 72.6745 144.878 72.9985C145.145 73.3994 145.457 73.7679 145.809 74.0965C146.597 74.9155 146.979 73.885 146.709 73.1515C146.439 72.418 145.665 71.8015 145.517 70.978" fill="white"/>
<path d="M146.34 74.6226C146.205 74.6116 146.074 74.5732 145.955 74.5098C145.836 74.4463 145.731 74.3592 145.647 74.2536L145.512 74.1141C145.198 73.8146 144.92 73.4794 144.684 73.1151C144.574 72.9418 144.452 72.7764 144.319 72.6201C144.225 72.5031 144.126 72.3861 144.036 72.2601C144.002 72.2115 143.988 72.1514 143.997 72.0926C144.006 72.0339 144.038 71.981 144.085 71.9451C144.109 71.9279 144.137 71.9156 144.166 71.9089C144.195 71.9023 144.225 71.9015 144.254 71.9065C144.283 71.9115 144.311 71.9223 144.336 71.9382C144.362 71.9541 144.383 71.9748 144.4 71.9991C144.486 72.1161 144.576 72.2241 144.666 72.3321C144.816 72.5053 144.951 72.6904 145.071 72.8856C145.29 73.2145 145.547 73.5165 145.836 73.7856L145.971 73.9251C146.151 74.1141 146.313 74.1951 146.398 74.1411C146.5 74.0117 146.564 73.8568 146.584 73.6934C146.604 73.5299 146.579 73.3642 146.511 73.2141C146.376 72.89 146.196 72.5868 145.975 72.3141C145.658 71.9387 145.432 71.4952 145.314 71.0181C145.303 70.9585 145.316 70.897 145.351 70.8472C145.386 70.7974 145.439 70.7634 145.498 70.7526C145.558 70.7419 145.619 70.7553 145.669 70.7899C145.719 70.8245 145.753 70.8775 145.764 70.9371C145.875 71.3475 146.074 71.7285 146.349 72.0531C146.598 72.3635 146.8 72.7093 146.947 73.0791C147.123 73.5876 147.046 74.2941 146.646 74.5371C146.554 74.5949 146.448 74.6247 146.34 74.6226Z" fill="#231F20"/>
<path d="M60.6644 98.743H45.9629L45.8279 96.187H60.7994L60.6644 98.743Z" fill="white"/>
<path d="M60.6645 98.968H45.963C45.9052 98.9692 45.8493 98.9477 45.8073 98.9082C45.7652 98.8686 45.7403 98.8142 45.738 98.7565L45.603 96.196C45.601 96.1653 45.6057 96.1346 45.6165 96.1059C45.6274 96.0772 45.6442 96.0512 45.666 96.0295C45.6867 96.0075 45.7119 95.9902 45.7398 95.9785C45.7677 95.9669 45.7977 95.9613 45.828 95.962H60.7995C60.8297 95.9613 60.8597 95.9669 60.8876 95.9785C60.9155 95.9902 60.9407 96.0075 60.9615 96.0295C61.0036 96.0745 61.0262 96.1343 61.0245 96.196L60.8895 98.7565C60.886 98.8138 60.8608 98.8676 60.819 98.9069C60.7771 98.9462 60.7219 98.9681 60.6645 98.968ZM46.1745 98.518H60.4485L60.561 96.412H46.0665L46.1745 98.518Z" fill="#231F20"/>
<path d="M59.4225 109.655H47.205L46.656 98.7427H59.9715L59.4225 109.655Z" fill="white"/>
<path d="M59.4225 109.88H47.205C47.1468 109.88 47.0909 109.858 47.049 109.817C47.007 109.777 46.9823 109.722 46.98 109.664L46.431 98.7561C46.4287 98.7254 46.4332 98.6946 46.4441 98.6659C46.455 98.6371 46.472 98.6111 46.494 98.5896C46.5144 98.5668 46.5393 98.5486 46.5672 98.5362C46.5952 98.5238 46.6254 98.5174 46.656 98.5176H59.9715C60.002 98.5174 60.0323 98.5238 60.0602 98.5362C60.0881 98.5486 60.1131 98.5668 60.1335 98.5896C60.1555 98.6111 60.1725 98.6371 60.1834 98.6659C60.1942 98.6946 60.1987 98.7254 60.1965 98.7561L59.6475 109.682C59.6408 109.737 59.6142 109.787 59.5727 109.824C59.5312 109.861 59.4778 109.88 59.4225 109.88ZM47.4165 109.43H59.2065L59.733 98.9676H46.89L47.4165 109.43Z" fill="#231F20"/>
<path d="M53.3113 107.054C52.0879 107.058 50.8793 106.786 49.7755 106.259C48.6718 105.731 47.7014 104.96 46.9367 104.005C46.172 103.05 45.6326 101.935 45.3588 100.743C45.085 99.5502 45.0838 98.3114 45.3553 97.1184C45.3618 97.0888 45.3741 97.0609 45.3914 97.036C45.4087 97.0112 45.4308 96.9901 45.4563 96.9738C45.4817 96.9575 45.5102 96.9464 45.54 96.9411C45.5698 96.9358 45.6003 96.9364 45.6298 96.9429C45.6594 96.9494 45.6874 96.9616 45.7122 96.979C45.737 96.9963 45.7582 97.0183 45.7745 97.0438C45.7907 97.0693 45.8019 97.0977 45.8072 97.1275C45.8125 97.1573 45.8118 97.1878 45.8053 97.2174C45.6833 97.7686 45.6199 98.3313 45.6163 98.8959C45.6138 99.9809 45.8404 101.054 46.2813 102.046C46.7221 103.037 47.3673 103.924 48.1747 104.649C48.982 105.374 49.9333 105.921 50.9664 106.253C51.9994 106.585 53.0909 106.695 54.1694 106.576C55.2479 106.457 56.2892 106.112 57.2251 105.563C58.161 105.014 58.9705 104.273 59.6006 103.39C60.2306 102.507 60.6671 101.5 60.8814 100.436C61.0958 99.3728 61.0831 98.2758 60.8444 97.2174C60.8377 97.1884 60.8369 97.1584 60.8419 97.1291C60.8469 97.0999 60.8577 97.0718 60.8736 97.0467C60.8895 97.0216 60.9102 96.9999 60.9345 96.9829C60.9589 96.9658 60.9863 96.9538 61.0153 96.9474C61.0737 96.9352 61.1346 96.9462 61.185 96.9782C61.2354 97.0101 61.2714 97.0604 61.2853 97.1184C61.4149 97.7021 61.4813 98.298 61.4834 98.8959C61.481 101.061 60.6188 103.137 59.0864 104.667C57.554 106.197 55.4767 107.056 53.3113 107.054Z" fill="#231F20"/>
<path d="M77.5307 41.4307C77.5307 41.4307 76.7387 43.9057 74.6597 44.7472C74.6597 44.7472 77.2832 45.0217 77.8547 47.4742C77.8547 47.4742 78.3992 44.7472 80.4782 44.0542C79.7539 44.0431 79.0577 43.7721 78.5166 43.2905C77.9755 42.8089 77.6256 42.1488 77.5307 41.4307Z" fill="#D1D3D4"/>
<path d="M85.536 58.3149C85.536 58.3149 84.744 60.7899 82.665 61.6314C82.665 61.6314 85.2885 61.9059 85.8555 64.3539C85.8555 64.3539 86.4 61.6314 88.4835 60.9384C87.759 60.9283 87.0623 60.6576 86.521 60.1758C85.9797 59.6941 85.6301 59.0335 85.536 58.3149Z" fill="#D1D3D4"/>
<path d="M109.458 34.8789C109.458 34.8789 108.792 36.9579 107.05 37.6644C107.05 37.6644 109.251 37.8939 109.75 39.9504C109.75 39.9504 110.2 37.6644 111.951 37.0839C111.339 37.0802 110.749 36.8548 110.29 36.4493C109.832 36.0438 109.536 35.4859 109.458 34.8789Z" fill="#D1D3D4"/>
<path d="M95.5844 65.4473C95.5844 65.4473 95.0354 67.1483 93.6089 67.7288C93.6089 67.7288 95.4089 67.9178 95.8049 69.6008C95.8049 69.6008 96.1784 67.7288 97.6049 67.2518C97.1075 67.244 96.6295 67.0573 96.2585 66.7259C95.8874 66.3946 95.6481 65.9406 95.5844 65.4473Z" fill="#D1D3D4"/>
</svg>
